<svg width="24" height="24" viewBox="0 0 24 24" fill="none" xmlns="http://www.w3.org/2000/svg">
<path d="M11.75 15.4167C13.775 15.4167 15.4166 13.775 15.4166 11.75C15.4166 9.72496 13.775 8.08334 11.75 8.08334C9.72494 8.08334 8.08331 9.72496 8.08331 11.75C8.08331 13.775 9.72494 15.4167 11.75 15.4167Z" stroke="white"/>
<path d="M22.75 13.2167V10.2833L19.5571 9.75093C19.3649 9 19.0701 8.29307 18.6844 7.64333L20.5661 5.0092L18.4908 2.93533L15.8567 4.8156C15.2069 4.42987 14.5 4.13507 13.7491 3.94293L13.2167 0.75H10.2833L9.75093 3.94293C9 4.13507 8.29307 4.42987 7.64333 4.8156L5.0092 2.93533L2.93533 5.0092L4.8156 7.64333C4.42987 8.29307 4.13507 9 3.94293 9.75093L0.75 10.2833V13.2167L3.94293 13.7491C4.13507 14.5 4.42987 15.2069 4.8156 15.8567L2.93533 18.4908L5.0092 20.5647L7.64333 18.6844C8.29307 19.0701 9 19.3649 9.75093 19.5571L10.2833 22.75H13.2167L13.7491 19.5571C14.5 19.3649 15.2069 19.0701 15.8567 18.6844L18.4908 20.5661L20.5647 18.4923L18.6844 15.8567C19.0701 15.2069 19.3649 14.5 19.5571 13.7491L22.75 13.2167Z" stroke="white"/>
</svg>
