<svg width="98" height="40" viewBox="0 0 98 40" fill="none" xmlns="http://www.w3.org/2000/svg">
<path d="M58.9306 10.9795H55.572V20.1092H53.3133V10.9795H50V9.15053H58.9306V10.9795ZM64.2846 16.0976H62.4848V20.1092H60.2258V9.15053H64.2995C65.5947 9.15053 66.5937 9.43905 67.2966 10.0161C67.9993 10.5931 68.3509 11.4085 68.3509 12.4622C68.3509 13.2099 68.1877 13.8346 67.8612 14.3363C67.54 14.8331 67.0506 15.2295 66.393 15.5255L68.7648 20.0038V20.1092H66.3403L64.2846 16.0976ZM62.4848 14.2686H64.307C64.8745 14.2686 65.3137 14.1256 65.6248 13.8396C65.9362 13.5486 66.0918 13.1497 66.0918 12.6429C66.0918 12.126 65.9436 11.7196 65.6475 11.4236C65.3564 11.1275 64.907 10.9795 64.2995 10.9795H62.4848V14.2686ZM78.3735 9.15053V16.3685C78.3735 17.5677 77.9969 18.5161 77.2439 19.2135C76.4959 19.911 75.4718 20.2597 74.1716 20.2597C72.8916 20.2597 71.875 19.9211 71.1219 19.2436C70.3689 18.5663 69.9848 17.6355 69.9697 16.4513V9.15053H72.2289V16.3836C72.2289 17.1011 72.3995 17.6254 72.7407 17.9566C73.0872 18.2828 73.5641 18.4459 74.1716 18.4459C75.4417 18.4459 76.0868 17.7785 76.1068 16.4438V9.15053H78.3735ZM85.9111 17.2341C85.9111 16.8076 85.7605 16.4814 85.4593 16.2556C85.1581 16.0248 84.6159 15.784 83.8328 15.5331C83.0497 15.2772 82.4297 15.0263 81.9728 14.7804C80.7277 14.108 80.1053 13.2023 80.1053 12.0633C80.1053 11.4712 80.2709 10.9444 80.6024 10.4827C80.9386 10.0161 81.4181 9.65229 82.0405 9.39138C82.668 9.13047 83.3709 9 84.1489 9C84.9321 9 85.6299 9.14302 86.2424 9.429C86.8547 9.71 87.3292 10.1089 87.6656 10.6257C88.007 11.1426 88.1776 11.7296 88.1776 12.387H85.9186C85.9186 11.8852 85.7605 11.4963 85.4441 11.2204C85.128 10.9394 84.6836 10.7989 84.1113 10.7989C83.5591 10.7989 83.1299 10.9168 82.8236 11.1526C82.5174 11.3834 82.3644 11.6895 82.3644 12.0708C82.3644 12.4271 82.5427 12.7257 82.8991 12.9665C83.2605 13.2074 83.7901 13.4331 84.4877 13.6439C85.773 14.0303 86.7092 14.5094 87.2966 15.0815C87.8839 15.6535 88.1776 16.366 88.1776 17.219C88.1776 18.1674 87.8186 18.9125 87.1007 19.4544C86.3829 19.9913 85.4166 20.2597 84.2017 20.2597C83.3583 20.2597 82.5904 20.1067 81.8974 19.8006C81.2048 19.4895 80.6752 19.0655 80.3087 18.5286C79.9472 17.9917 79.7665 17.3695 79.7665 16.662H82.033C82.033 17.8713 82.7559 18.476 84.2017 18.476C84.7388 18.476 85.1581 18.3681 85.4593 18.1523C85.7605 17.9315 85.9111 17.6254 85.9111 17.2341ZM97.9668 10.9795H94.6082V20.1092H92.3494V10.9795H89.0362V9.15053H97.9668V10.9795Z" fill="white"/>
<path d="M54.0054 30.0816L54.2699 31.4106L54.5936 30.1404L56.4526 23.8311H57.1056L58.941 30.1404L59.2586 31.4224L59.541 30.0816L61.0883 23.8311H61.8295L59.6352 32.3926H58.941L56.9996 25.695L56.782 24.8484L56.5702 25.695L54.5817 32.3926H53.8875L51.6991 23.8311H52.4403L54.0054 30.0816ZM67.589 29.9934H63.7003L62.8179 32.3926H62.0589L65.3006 23.8311H65.9887L69.2302 32.3926H68.4772L67.589 29.9934ZM63.9239 29.3761H67.3593L65.6418 24.713L63.9239 29.3761ZM71.2246 31.781H75.4543V32.3926H70.495V23.8311H71.2246V31.781ZM77.5781 31.781H81.8078V32.3926H76.8485V23.8311H77.5781V31.781ZM87.9319 28.2882H83.9256V31.781H88.5321V32.3926H83.2022V23.8311H88.5027V24.4486H83.9256V27.6767H87.9319V28.2882ZM95.9917 24.4486H93.056V32.3926H92.3324V24.4486H89.4027V23.8311H95.9917V24.4486Z" fill="white"/>
<path d="M0 11.2245C0 5.02538 5.02538 0 11.2245 0H28.7755C34.9746 0 40 5.02538 40 11.2245V28.7755C40 34.9746 34.9746 40 28.7755 40H11.2245C5.02538 40 0 34.9746 0 28.7755V11.2245Z" fill="white"/>
<path d="M20.0433 8.95947C24.115 12.114 28.7842 11.9194 30.1183 11.9194C29.8265 29.8599 27.603 27.4697 20.0433 32.5002C12.4836 27.4697 10.274 29.8599 9.98218 11.9194C11.3024 11.9194 15.9716 12.114 20.0433 8.95947Z" stroke="#3375BB" stroke-width="1.92209" stroke-miterlimit="10" stroke-linecap="round" stroke-linejoin="round"/>
</svg>
