<svg width="102" height="49" viewBox="0 0 102 49" fill="none" xmlns="http://www.w3.org/2000/svg">
<path d="M62.9306 12.9795H59.572V22.1092H57.3133V12.9795H54V11.1505H62.9306V12.9795ZM68.2846 18.0976H66.4848V22.1092H64.2258V11.1505H68.2995C69.5947 11.1505 70.5937 11.439 71.2966 12.0161C71.9993 12.5931 72.3509 13.4085 72.3509 14.4622C72.3509 15.2099 72.1877 15.8346 71.8612 16.3363C71.54 16.8331 71.0506 17.2295 70.393 17.5255L72.7648 22.0038V22.1092H70.3403L68.2846 18.0976ZM66.4848 16.2686H68.307C68.8745 16.2686 69.3137 16.1256 69.6248 15.8396C69.9362 15.5486 70.0918 15.1497 70.0918 14.6429C70.0918 14.126 69.9436 13.7196 69.6475 13.4236C69.3564 13.1275 68.907 12.9795 68.2995 12.9795H66.4848V16.2686ZM82.3735 11.1505V18.3685C82.3735 19.5677 81.9969 20.5161 81.2439 21.2135C80.4959 21.911 79.4718 22.2597 78.1716 22.2597C76.8916 22.2597 75.875 21.9211 75.1219 21.2436C74.3689 20.5663 73.9848 19.6355 73.9697 18.4513V11.1505H76.2289V18.3836C76.2289 19.1011 76.3995 19.6254 76.7407 19.9566C77.0872 20.2828 77.5641 20.4459 78.1716 20.4459C79.4417 20.4459 80.0868 19.7785 80.1068 18.4438V11.1505H82.3735ZM89.9111 19.2341C89.9111 18.8076 89.7605 18.4814 89.4593 18.2556C89.1581 18.0248 88.6159 17.784 87.8328 17.5331C87.0497 17.2772 86.4297 17.0263 85.9728 16.7804C84.7277 16.108 84.1053 15.2023 84.1053 14.0633C84.1053 13.4712 84.2709 12.9444 84.6024 12.4827C84.9386 12.0161 85.4181 11.6523 86.0405 11.3914C86.668 11.1305 87.3709 11 88.1489 11C88.9321 11 89.6299 11.143 90.2424 11.429C90.8547 11.71 91.3292 12.1089 91.6656 12.6257C92.007 13.1426 92.1776 13.7296 92.1776 14.387H89.9186C89.9186 13.8852 89.7605 13.4963 89.4441 13.2204C89.128 12.9394 88.6836 12.7989 88.1113 12.7989C87.5591 12.7989 87.1299 12.9168 86.8236 13.1526C86.5174 13.3834 86.3644 13.6895 86.3644 14.0708C86.3644 14.4271 86.5427 14.7257 86.8991 14.9665C87.2605 15.2074 87.7901 15.4331 88.4877 15.6439C89.773 16.0303 90.7092 16.5094 91.2966 17.0815C91.8839 17.6535 92.1776 18.366 92.1776 19.219C92.1776 20.1674 91.8186 20.9125 91.1007 21.4544C90.3829 21.9913 89.4166 22.2597 88.2017 22.2597C87.3583 22.2597 86.5904 22.1067 85.8974 21.8006C85.2048 21.4895 84.6752 21.0655 84.3087 20.5286C83.9472 19.9917 83.7665 19.3695 83.7665 18.662H86.033C86.033 19.8713 86.7559 20.476 88.2017 20.476C88.7388 20.476 89.1581 20.3681 89.4593 20.1523C89.7605 19.9315 89.9111 19.6254 89.9111 19.2341ZM101.967 12.9795H98.6082V22.1092H96.3494V12.9795H93.0362V11.1505H101.967V12.9795Z" fill="white"/>
<path d="M58.0054 32.0816L58.2699 33.4106L58.5936 32.1404L60.4526 25.8311H61.1056L62.941 32.1404L63.2586 33.4224L63.541 32.0816L65.0883 25.8311H65.8295L63.6352 34.3926H62.941L60.9996 27.695L60.782 26.8484L60.5702 27.695L58.5817 34.3926H57.8875L55.6991 25.8311H56.4403L58.0054 32.0816ZM71.589 31.9934H67.7003L66.8179 34.3926H66.0589L69.3006 25.8311H69.9887L73.2302 34.3926H72.4772L71.589 31.9934ZM67.9239 31.3761H71.3593L69.6418 26.713L67.9239 31.3761ZM75.2246 33.781H79.4543V34.3926H74.495V25.8311H75.2246V33.781ZM81.5781 33.781H85.8078V34.3926H80.8485V25.8311H81.5781V33.781ZM91.9319 30.2882H87.9256V33.781H92.5321V34.3926H87.2022V25.8311H92.5027V26.4486H87.9256V29.6767H91.9319V30.2882ZM99.9917 26.4486H97.056V34.3926H96.3324V26.4486H93.4027V25.8311H99.9917V26.4486Z" fill="white"/>
<g filter="url(#filter0_d)">
<path d="M4 13.2245C4 7.02538 9.02538 2 15.2245 2H32.7755C38.9746 2 44 7.02538 44 13.2245V30.7755C44 36.9746 38.9746 42 32.7755 42H15.2245C9.02538 42 4 36.9746 4 30.7755V13.2245Z" fill="white"/>
</g>
<path d="M24.0433 10.9595C28.115 14.114 32.7842 13.9194 34.1183 13.9194C33.8265 31.8599 31.603 29.4697 24.0433 34.5002C16.4836 29.4697 14.274 31.8599 13.9822 13.9194C15.3024 13.9194 19.9716 14.114 24.0433 10.9595Z" stroke="#3375BB" stroke-width="1.92209" stroke-miterlimit="10" stroke-linecap="round" stroke-linejoin="round"/>
<defs>
<filter id="filter0_d" x="0.25" y="0.75" width="47.5" height="47.5" filterUnits="userSpaceOnUse" color-interpolation-filters="sRGB">
<feFlood flood-opacity="0" result="BackgroundImageFix"/>
<feColorMatrix in="SourceAlpha" type="matrix" values="0 0 0 0 0 0 0 0 0 0 0 0 0 0 0 0 0 0 127 0"/>
<feOffset dy="2.5"/>
<feGaussianBlur stdDeviation="1.875"/>
<feColorMatrix type="matrix" values="0 0 0 0 0 0 0 0 0 0 0 0 0 0 0 0 0 0 0.05 0"/>
<feBlend mode="normal" in2="BackgroundImageFix" result="effect1_dropShadow"/>
<feBlend mode="normal" in="SourceGraphic" in2="effect1_dropShadow" result="shape"/>
</filter>
</defs>
</svg>
