<svg width="240" height="240" viewBox="0 0 240 240" fill="none" xmlns="http://www.w3.org/2000/svg">
<mask id="mask0" mask-type="alpha" maskUnits="userSpaceOnUse" x="0" y="0" width="241" height="241">
<rect width="240" height="240" rx="24.1256" fill="#F2F5F7"/>
</mask>
<g mask="url(#mask0)">
<rect width="240" height="240" rx="20" fill="#ECF0F4"/>
<mask id="mask1" mask-type="alpha" maskUnits="userSpaceOnUse" x="130" y="50" width="158" height="181">
<rect x="130.153" y="93.1051" width="105.469" height="150.671" rx="10.524" transform="rotate(-24 130.153 93.1051)" fill="#ECF0F4"/>
</mask>
<g mask="url(#mask1)">
<rect x="138.416" y="112.039" width="105.469" height="130.013" rx="19.3767" transform="rotate(-24 138.416 112.039)" fill="white"/>
<g filter="url(#filter0_d)">
<path d="M185.891 119.85C182.278 121.905 182.943 125.186 187.377 127.172C191.81 129.158 198.292 129.147 201.905 127.091C205.518 125.036 204.853 121.755 200.419 119.769C196.037 117.76 189.528 117.847 185.891 119.85Z" fill="#FD9E2F"/>
</g>
<g filter="url(#filter1_d)">
<path d="M188.569 121.042C186.047 122.464 186.472 124.662 189.518 125.949C192.564 127.237 197.048 127.159 199.57 125.737C202.092 124.316 201.668 122.117 198.622 120.83C195.612 119.527 191.107 119.657 188.569 121.042Z" fill="#FB9B2B"/>
</g>
<path d="M214.357 106.628C210.498 107.536 207.622 112.184 207.961 117.064C208.285 121.908 211.7 125.078 215.575 124.205C219.434 123.297 222.31 118.648 221.97 113.769C221.647 108.925 218.216 105.72 214.357 106.628Z" fill="#454A75"/>
<path d="M213.837 121.739C210.753 122.472 208.042 119.927 207.779 116.08C207.515 112.232 209.791 108.533 212.839 107.815C215.923 107.082 218.634 109.627 218.897 113.474C219.161 117.322 216.901 121.057 213.837 121.739ZM212.727 106.032C208.868 106.94 205.992 111.589 206.332 116.468C206.655 121.312 210.086 124.517 213.945 123.609C217.804 122.701 220.68 118.053 220.34 113.173C220.001 108.293 216.586 105.124 212.727 106.032Z" fill="#62688F"/>
<g filter="url(#filter2_d)">
<path d="M212.839 107.815C209.755 108.549 207.479 112.248 207.778 116.08C208.042 119.927 210.752 122.472 213.837 121.739C216.921 121.005 219.196 117.306 218.897 113.474C218.633 109.627 215.939 107.117 212.839 107.815Z" fill="#747AA0"/>
</g>
<path d="M203.179 139.273C204.446 135.516 209.343 133.089 214.17 133.884C218.962 134.661 221.797 138.358 220.565 142.134C219.299 145.891 214.401 148.318 209.575 147.522C204.782 146.746 201.913 143.03 203.179 139.273Z" fill="#4F78AF"/>
<path d="M218.272 140.173C219.292 137.171 217.013 134.234 213.207 133.61C209.401 132.987 205.505 134.905 204.504 137.873C203.484 140.875 205.764 143.812 209.57 144.435C213.376 145.059 217.306 143.159 218.272 140.173ZM202.739 137.595C204.005 133.838 208.903 131.41 213.729 132.206C218.522 132.982 221.391 136.699 220.125 140.456C218.858 144.212 213.961 146.64 209.134 145.844C204.308 145.048 201.473 141.351 202.739 137.595Z" fill="#7AA7E4"/>
<g filter="url(#filter3_d)">
<path d="M204.504 137.873C205.524 134.871 209.42 132.953 213.207 133.61C217.013 134.233 219.292 137.171 218.273 140.172C217.253 143.174 213.357 145.093 209.57 144.435C205.764 143.812 203.518 140.894 204.504 137.873Z" fill="#7AA7E4"/>
</g>
<g opacity="0.1">
<path opacity="0.1" d="M218.327 131.227C218.944 131.081 219.363 130.681 219.319 130.104C219.291 129.562 218.899 129.353 218.053 129.175C216.842 128.947 215.976 128.437 215.896 127.108C215.828 125.902 216.436 124.779 217.595 124.22L217.515 122.892L218.59 122.626L218.658 123.832C219.413 123.709 219.916 123.784 220.276 123.922L220.063 125.551C219.77 125.469 219.256 125.271 218.446 125.462C217.706 125.62 217.529 126.083 217.564 126.451C217.596 126.906 217.988 127.115 218.973 127.316C220.337 127.604 220.919 128.24 221.003 129.482C221.087 130.723 220.475 131.934 219.229 132.488L219.341 133.888L218.265 134.154L218.185 132.825C217.43 132.948 216.718 132.881 216.275 132.652L216.508 130.972C216.931 131.252 217.587 131.386 218.327 131.227Z" fill="black"/>
<path opacity="0.1" d="M204.314 176.647L225.143 176.028L249.788 158.703" stroke="black" stroke-width="8.85486" stroke-miterlimit="10" stroke-linecap="round"/>
<path opacity="0.1" d="M210.599 171.419L231.463 170.784L256.108 153.459" stroke="black" stroke-width="8.85486" stroke-miterlimit="10" stroke-linecap="round"/>
<path opacity="0.1" d="M215.886 165.867L236.714 165.248L261.395 147.907" stroke="black" stroke-width="6.84239" stroke-miterlimit="10" stroke-linecap="round"/>
<path opacity="0.1" d="M200.396 183.934L220.212 183.339C220.893 183.335 221.549 183.085 222.106 182.709L249.573 162.721" stroke="black" stroke-width="9.25738" stroke-miterlimit="10" stroke-linecap="round"/>
<path opacity="0.2" d="M211.513 177.492C211.856 176.061 212.82 174.779 214.243 174.145L220.644 171.381C223.933 169.959 226.708 167.572 228.604 164.554C229.975 162.366 231.63 159.668 233.095 157.31C235.557 153.358 239.228 150.401 243.605 148.836C244.11 152.364 244.717 155.93 244.593 159.481C244.531 162.024 244.26 164.575 244.372 167.126C244.501 169.712 240.761 171.462 238.033 172.421C235.783 173.21 233.541 174.208 231.466 175.387L218.03 183.032C216.713 183.619 215.27 183.536 214.075 182.96C212.762 183.075 211.453 182.337 210.882 181.056C210.328 179.811 210.635 178.395 211.513 177.492Z" fill="black"/>
<path opacity="0.1" d="M210.915 177.971C209.854 175.587 210.872 172.704 213.256 171.643L219.586 168.91C222.875 167.488 225.614 165.117 227.51 162.099C228.881 159.911 230.536 157.213 232.002 154.855C234.482 150.851 238.439 147.768 242.883 146.259L252.783 142.831L260.228 159.554L252.999 165.629C250.3 167.897 247.086 169.584 243.646 170.476L236.66 172.307C235.636 172.593 234.627 172.914 233.667 173.341L217.062 180.478C214.698 181.488 211.992 180.391 210.947 178.043L210.915 177.971Z" fill="black"/>
<path opacity="0.1" d="M217.761 178.505C218.686 178.093 219.101 177.013 218.689 176.088L217.564 173.562C217.152 172.636 216.072 172.222 215.147 172.634L211.376 174.313C209.774 175.026 209.044 176.928 209.757 178.53C210.47 180.131 212.373 180.861 213.974 180.148L217.745 178.469L217.761 178.505Z" fill="black"/>
</g>
<path d="M202.06 176.372L222.888 175.753L247.533 158.428" stroke="#CD9E67" stroke-width="8.85486" stroke-miterlimit="10" stroke-linecap="round"/>
<path d="M208.344 171.143L229.208 170.509L253.853 153.184" stroke="#CD9E67" stroke-width="8.85486" stroke-miterlimit="10" stroke-linecap="round"/>
<path d="M213.632 165.592L234.46 164.973L259.141 147.632" stroke="#CD9E67" stroke-width="6.84239" stroke-miterlimit="10" stroke-linecap="round"/>
<path d="M198.142 183.658L217.958 183.064C218.638 183.06 219.294 182.81 219.851 182.434L247.319 162.446" stroke="#FFDAAF" stroke-width="9.25738" stroke-miterlimit="10" stroke-linecap="round"/>
<path opacity="0.2" d="M209.258 177.217C209.601 175.785 210.565 174.503 211.988 173.87L218.389 171.105C221.678 169.683 224.453 167.297 226.349 164.278C227.72 162.091 229.375 159.392 230.841 157.035C233.302 153.082 236.973 150.126 241.35 148.561C241.855 152.088 242.462 155.655 242.338 159.206C242.276 161.749 242.005 164.3 242.117 166.85C242.246 169.436 238.506 171.187 235.778 172.146C233.528 172.934 231.287 173.932 229.211 175.112L215.775 182.757C214.458 183.343 213.015 183.261 211.82 182.684C210.507 182.8 209.198 182.061 208.627 180.78C208.073 179.535 208.381 178.119 209.258 177.217Z" fill="#4E2C09"/>
<path d="M208.661 177.696C207.6 175.312 208.618 172.428 211.002 171.367L217.332 168.634C220.621 167.212 223.36 164.842 225.256 161.823C226.627 159.635 228.282 156.937 229.748 154.579C232.229 150.576 236.185 147.493 240.629 145.983L250.529 142.556L257.975 159.279L250.746 165.354C248.046 167.621 244.832 169.308 241.392 170.2L234.406 172.032C233.382 172.317 232.373 172.638 231.413 173.066L214.808 180.203C212.444 181.213 209.739 180.115 208.693 177.767L208.661 177.696Z" fill="#FFDAAF"/>
<path d="M215.507 178.229C216.432 177.817 216.847 176.738 216.435 175.812L215.31 173.286C214.898 172.361 213.818 171.947 212.893 172.358L209.122 174.038C207.521 174.751 206.79 176.653 207.503 178.254C208.216 179.855 210.119 180.586 211.72 179.873L215.491 178.194L215.507 178.229Z" fill="#FFECD7"/>
</g>
<mask id="mask2" mask-type="alpha" maskUnits="userSpaceOnUse" x="28" y="153" width="159" height="182">
<rect x="28.6357" y="196.822" width="105.469" height="150.671" rx="13.1197" transform="rotate(-24 28.6357 196.822)" fill="#ECF0F4"/>
</mask>
<g mask="url(#mask2)">
<rect x="28.6357" y="196.822" width="105.469" height="150.671" rx="19.3767" transform="rotate(-24 28.6357 196.822)" fill="white"/>
<path d="M114.899 253.671C127.643 247.997 133.374 233.066 127.7 220.323C122.026 207.579 107.096 201.848 94.352 207.521C81.6082 213.195 75.8769 228.126 81.5508 240.87C87.2247 253.613 102.155 259.345 114.899 253.671Z" fill="#302C2C"/>
<path fill-rule="evenodd" clip-rule="evenodd" d="M110.962 246.783C110.554 246.916 110.149 247.054 109.739 247.181C107.534 247.863 105.215 248.095 102.919 247.861C102.885 247.858 102.851 247.848 102.781 247.835C104.903 244.039 107.017 240.264 109.142 236.467L110.516 236.973C111.282 237.257 112.049 237.535 112.808 237.831C112.996 237.903 113.089 237.86 113.205 237.715C114.439 236.217 115.265 234.426 115.605 232.516L115.658 232.22C115.726 232.252 115.786 232.275 115.841 232.306C117.604 233.287 119.365 234.269 121.129 235.244C121.282 235.328 121.304 235.408 121.253 235.569C119.983 239.636 117.588 242.859 114.01 245.189C113.561 245.483 113.082 245.731 112.616 246.002C112.555 246.038 112.498 246.084 112.44 246.125L110.962 246.783ZM98.2345 214.433C98.515 214.341 98.7975 214.25 99.0781 214.154C101.447 213.359 103.873 213.086 106.356 213.333C106.392 213.338 106.426 213.347 106.489 213.36L99.8946 224.624C99.7123 224.56 99.5369 224.5 99.361 224.435C98.3849 224.074 97.4066 223.717 96.4323 223.349C96.2766 223.29 96.1893 223.315 96.0839 223.443C94.8246 224.958 93.9839 226.777 93.6456 228.718L93.5977 228.998L87.9272 225.841C88.1168 225.3 88.2796 224.773 88.4827 224.263C89.8069 220.938 91.9393 218.248 94.8996 216.231C95.4697 215.842 96.0861 215.523 96.6807 215.17C96.7482 215.131 96.8111 215.082 96.8746 215.039L98.2331 214.434L98.2345 214.433ZM87.3547 228.84L98.7627 235.076L97.9729 237.215C97.776 237.746 97.5838 238.281 97.3771 238.81C97.3195 238.96 97.3505 239.042 97.4704 239.14C98.9845 240.401 100.803 241.242 102.743 241.579C102.808 241.589 102.873 241.599 102.937 241.614C102.948 241.616 102.959 241.629 103.007 241.666L99.8743 247.287C95.984 246.118 92.8312 243.947 90.4875 240.654C87.9783 237.13 86.9847 233.187 87.3561 228.839L87.3547 228.84ZM110.603 226.041L111.315 224.077C111.514 223.529 111.704 222.979 111.916 222.437C111.982 222.268 111.942 222.181 111.811 222.073C110.283 220.796 108.444 219.946 106.481 219.611C106.411 219.599 106.342 219.583 106.222 219.558L109.372 213.905C113.071 215.006 116.107 217.041 118.442 220.088C121.357 223.891 122.324 228.507 121.879 232.258L110.603 226.041Z" fill="white"/>
</g>
<mask id="mask3" mask-type="alpha" maskUnits="userSpaceOnUse" x="59" y="-92" width="159" height="182">
<rect x="59.8408" y="-48.342" width="105.469" height="150.671" rx="13.1197" transform="rotate(-24 59.8408 -48.342)" fill="#ECF0F4"/>
</mask>
<g mask="url(#mask3)">
<rect x="59.8408" y="-48.342" width="105.469" height="150.671" rx="19.3767" transform="rotate(-24 59.8408 -48.342)" fill="white"/>
<path d="M187.801 13.1703C192.454 23.6215 187.796 35.8441 177.402 40.472C167.007 45.0998 154.807 40.3828 150.154 29.9315C145.501 19.4802 150.159 7.25766 160.553 2.62981C170.947 -1.99804 183.147 2.71898 187.801 13.1703Z" fill="white" stroke="#E8EBF5" stroke-width="0.66047"/>
<path d="M162.554 7.13579C162.594 7.22628 162.634 7.31676 162.675 7.40724C164.165 10.7552 165.676 14.1483 167.167 17.4962C167.187 17.5415 167.227 17.632 167.247 17.6772C167.267 17.7224 167.242 17.788 167.196 17.8084C166.937 18.0866 166.723 18.3444 166.463 18.6226C166.132 18.9868 165.756 19.3713 165.445 19.7807C165.043 20.2308 164.641 20.6809 164.238 21.131C163.908 21.4951 163.577 21.8593 163.246 22.2234C162.844 22.6735 162.442 23.1236 162.039 23.5737C161.709 23.9379 161.378 24.302 161.021 24.7318C160.762 25.01 160.477 25.3538 160.217 25.632C160.171 25.6524 160.191 25.6976 160.126 25.6727C160.126 25.6727 160.126 25.6727 160.08 25.6931C160.116 25.4058 160.173 25.1638 160.209 24.8765C160.397 23.3293 160.63 21.7617 160.818 20.2145C161.011 18.5565 161.249 16.8781 161.442 15.2201C161.63 13.6729 161.818 12.1257 162.025 10.6238C162.171 9.47467 162.337 8.37083 162.437 7.24209C162.528 7.20139 162.508 7.15614 162.554 7.13579C162.508 7.15614 162.554 7.13579 162.554 7.13579Z" fill="#828384"/>
<path d="M177.909 17.7554C177.424 18.5131 176.874 19.2459 176.37 19.9584C174.714 22.2677 173.084 24.5115 171.428 26.8209C171.382 26.8412 171.402 26.8864 171.356 26.9068C171.311 26.9272 171.291 26.8819 171.291 26.8819C171.27 26.8367 171.25 26.7914 171.23 26.7462C169.921 23.8055 168.612 20.8647 167.302 17.924C167.282 17.8787 167.262 17.8335 167.242 17.7883C167.222 17.743 167.267 17.7227 167.313 17.7023C167.536 17.7114 167.759 17.7204 168.028 17.7092C168.698 17.7364 169.393 17.698 170.062 17.7252C170.666 17.7275 171.224 17.7502 171.807 17.7073C172.411 17.7096 172.968 17.7323 173.572 17.7346C174.064 17.7324 174.602 17.7098 175.114 17.7528C175.606 17.7506 176.144 17.728 176.656 17.7711C177.036 17.7643 177.437 17.8028 177.863 17.7757C177.843 17.7305 177.863 17.7757 177.909 17.7554Z" fill="#131313"/>
<path d="M175.304 35.7742C175.304 35.7742 175.258 35.7945 175.304 35.7742C175.258 35.7945 175.258 35.7945 175.193 35.7696C173.714 34.9099 172.302 34.0751 170.823 33.2154C169.345 32.3557 167.867 31.496 166.389 30.6363C164.976 29.8015 163.518 28.987 162.085 28.107C161.716 27.892 161.346 27.6771 160.977 27.4622C160.956 27.4169 160.911 27.4373 160.891 27.392C160.936 27.3717 160.956 27.4169 161.002 27.3966C162.559 27.5709 164.161 27.7249 165.718 27.8992C167.518 28.1278 169.343 28.2909 171.143 28.5195C171.432 28.5535 171.767 28.5671 172.056 28.601C172.101 28.5807 172.122 28.6259 172.142 28.6712C172.162 28.7164 172.182 28.7616 172.202 28.8069C173.209 31.069 174.196 33.2859 175.203 35.548C175.224 35.5932 175.264 35.6837 175.304 35.7742Z" fill="#828384"/>
<path d="M160.125 25.6728C160.125 25.6728 160.169 25.6533 160.125 25.6728C160.169 25.6533 160.169 25.6533 160.125 25.6728C160.144 25.7161 160.144 25.7161 160.125 25.6728Z" fill="#808080"/>
<path d="M160.192 25.6977C160.172 25.6524 160.172 25.6524 160.192 25.6977C160.548 25.2679 160.925 24.8834 161.281 24.4537C161.755 23.9176 162.228 23.3816 162.702 22.8455C163.058 22.4158 163.435 22.0313 163.791 21.6015C164.29 20.9999 164.855 20.4231 165.354 19.8215C165.73 19.437 166.087 19.0072 166.463 18.6227C166.723 18.3445 166.983 18.0663 167.222 17.7429C167.268 17.7225 167.248 17.6773 167.293 17.6569C167.293 17.6569 167.293 17.6569 167.313 17.7022C167.334 17.7474 167.334 17.7474 167.354 17.7926C168.683 20.7786 170.013 23.7646 171.342 26.7506C171.362 26.7958 171.382 26.8411 171.403 26.8863C171.377 26.9519 171.357 26.9067 171.311 26.927C171.134 26.8976 170.976 26.9134 170.845 26.8636C167.331 26.4765 163.817 26.0893 160.303 25.7022C160.237 25.6773 160.192 25.6977 160.192 25.6977Z" fill="#343535"/>
<path d="M178.629 19.4947C178.649 19.5399 178.649 19.5399 178.623 19.6055C177.624 24.4959 176.604 29.341 175.604 34.2314C175.511 34.7607 175.398 35.2447 175.305 35.774C175.305 35.774 175.305 35.774 175.285 35.7288C175.264 35.6835 175.264 35.6835 175.244 35.6383C174.217 33.331 173.19 31.0236 172.162 28.7163C172.142 28.671 172.122 28.6258 172.102 28.5805C172.535 27.954 172.968 27.3275 173.422 26.7462C175.149 24.3509 176.876 21.9556 178.603 19.5603C178.583 19.515 178.629 19.4947 178.629 19.4947Z" fill="#2F3030"/>
<path d="M167.268 17.7223C167.247 17.677 167.227 17.6318 167.227 17.6318C165.696 14.1934 164.145 10.7097 162.615 7.27135C162.594 7.2261 162.574 7.18086 162.574 7.18086C167.635 10.6739 172.696 14.1669 177.757 17.6599C177.823 17.6848 177.889 17.7097 177.909 17.755C177.686 17.7459 177.463 17.7368 177.194 17.7481C176.925 17.7594 176.636 17.7254 176.367 17.7367C176.21 17.7525 176.032 17.7231 175.829 17.7593C175.56 17.7706 175.226 17.757 174.957 17.7682C174.8 17.7841 174.622 17.7546 174.465 17.7705C174.084 17.7772 173.704 17.784 173.324 17.7907C173.1 17.7816 172.943 17.7975 172.72 17.7884C172.451 17.7997 172.162 17.7657 171.893 17.777C171.736 17.7928 171.558 17.7634 171.401 17.7792C171.021 17.786 170.64 17.7927 170.26 17.7995C170.037 17.7904 169.879 17.8062 169.656 17.7971C169.387 17.8084 169.098 17.7745 168.83 17.7858C168.652 17.7563 168.449 17.7925 168.272 17.7631C167.937 17.7495 167.602 17.7359 167.268 17.7223Z" fill="#2F3030"/>
<path d="M156.159 27.2714C161 38.1451 156.154 50.8618 145.34 55.6767C134.525 60.4917 121.832 55.5839 116.991 44.7102C112.15 33.8365 116.996 21.1198 127.81 16.3049C138.625 11.4899 151.318 16.3977 156.159 27.2714Z" fill="white" stroke="#E8EBF5" stroke-width="0.66047"/>
<path d="M130.56 35.9055L133.521 28.0404L141.351 31.1043L143.074 26.5277L130.69 21.6813L126.006 34.1235L130.56 35.9055ZM124.789 37.355L129.343 39.1367L127.62 43.7136L123.066 41.9316L124.789 37.355ZM132.559 40.3955L140.385 43.4578L143.348 35.5888L147.903 37.3682L147.902 37.3707L143.216 49.8168L130.836 44.9724L130.83 44.9699L132.559 40.3955ZM150.841 29.5671L149.118 34.1436L144.564 32.362L146.287 27.7851L150.841 29.5671Z" fill="#F5BC00"/>
<path d="M140.136 34.33L140.137 34.3294L135.516 32.5211L134.224 35.9532L134.224 35.9533L134.076 36.3476L133.77 37.1611L133.767 37.1675L133.774 37.1702L138.391 38.9768L140.139 34.3327L140.14 34.3303L140.136 34.33Z" fill="#F5BC00"/>
</g>
<mask id="mask4" mask-type="alpha" maskUnits="userSpaceOnUse" x="-46" y="-7" width="159" height="182">
<rect x="-45.0938" y="36.4492" width="105.622" height="151.007" rx="12.2194" transform="rotate(-24 -45.0938 36.4492)" fill="#ECF0F4"/>
</mask>
<g mask="url(#mask4)">
<rect x="-32.6094" y="64.4906" width="105.622" height="120.312" rx="23.2257" transform="rotate(-24 -32.6094 64.4906)" fill="white"/>
<path d="M-9.90695 154.366C-9.90695 154.366 -34.5692 194.938 18.6194 165.127" stroke="#3375BB" stroke-width="5.31669" stroke-miterlimit="10" stroke-linecap="round" stroke-linejoin="round"/>
<path d="M79.5186 122.707C79.5186 122.707 106.38 129.263 71.3494 141.504" stroke="#3375BB" stroke-width="5.31669" stroke-miterlimit="10" stroke-linecap="round" stroke-linejoin="round"/>
<path d="M59.4121 172.386C44.163 179.789 12.9798 169.342 -0.784304 140.989C-12.3508 117.162 -8.91103 106.66 -2.95453 103.768C3.00197 100.877 7.62188 110.999 15.6071 106.828C23.5925 102.657 16.9439 93.814 25.7598 89.5343C34.814 85.139 38.5823 97.1473 43.586 94.7183C52.4019 90.4387 47.7104 81.381 55.8116 77.4483C66.0571 72.4747 75.7152 92.3699 79.6479 100.471C92.6027 127.157 81.5709 161.629 59.4121 172.386Z" fill="#94C4F4"/>
<g clip-path="url(#clip0)">
<path d="M60.4369 95.3528C54.0191 97.3285 42.5456 102.673 35.4145 108.865L31.8735 110.584C22.5961 112.357 11.3044 118.076 5.77753 121.887C5.12442 122.429 6.64029 125.552 7.28528 125.465C8.67262 125.468 9.76621 126.303 9.76621 126.303C9.76621 126.303 10.673 127.228 13.5689 130.809C16.4645 134.414 19.2528 133.975 19.2528 133.975C19.2528 133.975 22.5924 133.256 25.9486 131.627C29.3049 129.998 31.2749 128.816 32.9715 126.627C34.6689 124.438 34.1785 121.043 34.1785 121.043C34.1785 121.043 34.0507 117.922 33.635 115.18C33.4613 114.35 37.1976 112.536 37.7417 113.187C39.645 115.219 42.0119 117.24 42.0119 117.24C42.0119 117.24 44.3761 119.725 47.1462 119.746C49.9259 119.762 52.0635 118.949 55.4189 117.321C58.7744 115.692 61.4056 113.512 61.4056 113.512C61.4056 113.512 63.5689 111.785 62.4428 107.107C61.3262 102.425 61.2547 101.332 61.2547 101.332C61.2547 101.332 61.274 99.9567 62.13 98.8649C62.7973 98.3028 61.1882 94.9881 60.4369 95.3528Z" fill="#3375BB"/>
<path d="M56.4318 102.871C56.4318 102.871 58.0529 108.153 54.6446 112.528" stroke="#F8FCFA" stroke-width="4.46188" stroke-miterlimit="10" stroke-linecap="round"/>
<path d="M28.6027 117.034C28.6027 117.034 30.2238 122.316 26.8154 126.691" stroke="#F8FCFA" stroke-width="4.46188" stroke-miterlimit="10" stroke-linecap="round"/>
</g>
<path d="M33.2516 203.747C24.9811 202.192 6.12485 191.99 -15.806 161.63C-31.1011 140.455 -34.9888 124.118 -35.5573 114.141C-35.993 106.492 -34.5931 101.326 -33.7504 98.9827C-27.8585 99.0302 -5.52581 101.723 19.8303 136.825C40.7784 165.825 45.1702 186.846 44.59 195.489L37.356 197.334L33.2516 203.747Z" fill="#FEC330"/>
<path d="M-31.6619 101.956C-29.0144 102.206 -24.8689 102.988 -19.6697 105.251C-10.9199 109.061 2.63187 117.922 17.5018 138.508C38.298 167.298 41.3713 185.985 41.6516 193.274L37.7433 194.271L35.547 194.83L34.3256 196.739L32.0075 200.362C25.3629 198.259 8.37483 190.201 -13.4786 159.947C-28.178 139.598 -32.023 123.988 -32.659 114.477C-33.0389 108.791 -32.3441 104.567 -31.6619 101.956ZM-35.6966 96.2021C-35.6966 96.2021 -48.9 120.72 -18.1348 163.311C12.6304 205.901 34.6964 206.82 34.6964 206.82L39.1641 199.838L47.1968 197.79C47.1968 197.79 51.6388 175.957 22.1574 135.144C-8.91621 92.1262 -35.6966 96.2021 -35.6966 96.2021Z" fill="#F48C35"/>
<path d="M-18.5731 121.217C-18.5731 121.217 -14.6115 131.717 6.62474 159.088C27.861 186.46 29.167 185.598 29.167 185.598C29.167 185.598 31.3304 185.605 10.2729 156.453C-8.61577 130.304 -18.5731 121.217 -18.5731 121.217Z" fill="#F48C35"/>
<path d="M-8.95312 175.981C-5.13703 175.752 2.0986 172.402 9.3305 166.579" stroke="#3375BB" stroke-width="5.31669" stroke-miterlimit="10" stroke-linecap="round" stroke-linejoin="round"/>
<path d="M87.4043 133.403C84.9964 135.739 80.1069 138.444 71.3493 141.504" stroke="#3375BB" stroke-width="5.31669" stroke-miterlimit="10" stroke-linecap="round" stroke-linejoin="round"/>
<path d="M65.2022 68.4473L70.8334 61.3176C71.7943 60.1011 73.5595 59.8936 74.776 60.8545C75.9926 61.8154 76.2 63.5806 75.2391 64.7971C75.1151 64.9543 74.9657 65.1035 74.818 65.2265L67.7975 70.9928C67.0174 71.6336 65.8654 71.5208 65.2245 70.7404C64.6683 70.0641 64.6807 69.1074 65.2022 68.4473Z" fill="#3375BB"/>
<path d="M57.7461 66.8361L57.4121 56.3578C57.3629 54.8107 58.5772 53.5164 60.1243 53.4671C61.6714 53.4178 62.9657 54.6321 63.015 56.1793C63.0203 56.3509 63.0076 56.5348 62.9831 56.6986L61.3743 67.0583C61.2197 68.0546 60.2864 68.7366 59.2903 68.5819C58.4084 68.4447 57.7729 67.6968 57.7461 66.8361Z" fill="#3375BB"/>
<path d="M50.1558 69.8238L45.3001 62.0495C44.4789 60.7349 44.8791 59.0034 46.1937 58.1822C47.5083 57.361 49.2399 57.7612 50.0611 59.0758C50.1659 59.2437 50.2558 59.4331 50.3214 59.612L53.4263 68.2362C53.7682 69.1861 53.2756 70.2334 52.3257 70.5753C51.5003 70.8723 50.6019 70.5388 50.1558 69.8238Z" fill="#3375BB"/>
<path opacity="0.5" d="M90.6519 173.432C91.5312 175.243 79.8074 182.749 66.8263 189.05C53.8452 195.352 44.6626 197.657 43.7834 195.846C42.9041 194.035 54.4953 186.256 67.4764 179.954C80.4574 173.653 89.7727 171.62 90.6519 173.432Z" fill="#94C4F4"/>
<path opacity="0.5" d="M111.936 142.837C112.449 143.893 111.875 144.892 110.818 145.405C109.762 145.918 108.49 145.478 107.977 144.421C107.464 143.364 108.178 141.959 109.234 141.446C110.291 140.933 111.423 141.78 111.936 142.837Z" fill="#94C4F4"/>
<path opacity="0.5" d="M6.22832 93.5123C6.99772 95.0972 6.24473 96.5438 4.79181 97.2491C3.3389 97.9544 1.5375 97.2413 0.768106 95.6563C-0.0012864 94.0714 0.92849 92.0325 2.3814 91.3271C3.83431 90.6218 5.45893 91.9274 6.22832 93.5123Z" fill="#94C4F4"/>
<path d="M37.802 129.851C37.7747 129.855 37.8278 129.869 37.8642 129.881C37.8983 129.894 37.945 129.904 37.9926 129.913C38.0845 129.933 38.1799 129.954 38.2842 129.964C38.4845 129.998 38.6994 130.004 38.9108 130.018C39.3398 130.023 39.7764 130.001 40.2078 129.93C41.0706 129.792 41.9182 129.526 42.701 129.129C43.476 128.719 44.2313 128.257 44.875 127.636C45.0421 127.49 45.2089 127.345 45.3551 127.172L45.8072 126.675C46.097 126.332 46.3553 125.952 46.6218 125.591L46.7558 125.409C47.5061 124.392 48.9385 124.176 49.9551 124.927C50.9718 125.677 51.1879 127.109 50.4377 128.126C50.3811 128.203 50.3109 128.284 50.2472 128.352C49.8236 128.794 49.4383 129.259 48.9995 129.683C48.5379 130.09 48.1241 130.535 47.6195 130.897C47.3759 131.085 47.138 131.28 46.8906 131.462L46.1137 131.969C45.8611 132.147 45.586 132.291 45.3128 132.438C45.0372 132.58 44.7742 132.744 44.485 132.86L43.6338 133.236L42.7554 133.545C42.1639 133.732 41.5639 133.893 40.9541 134.016C40.3455 134.144 39.7263 134.23 39.0986 134.297C38.7809 134.319 38.4663 134.349 38.1371 134.357C37.9764 134.364 37.8076 134.368 37.6354 134.367L37.3685 134.364C37.2733 134.36 37.1947 134.361 37.0365 134.343C35.7958 134.132 34.9614 132.955 35.1727 131.715C35.3846 130.474 36.5614 129.64 37.802 129.851Z" fill="#3375BB"/>
</g>
</g>
<defs>
<filter id="filter0_d" x="182.6" y="118.304" width="21.6333" height="12.2689" filterUnits="userSpaceOnUse" color-interpolation-filters="sRGB">
<feFlood flood-opacity="0" result="BackgroundImageFix"/>
<feColorMatrix in="SourceAlpha" type="matrix" values="0 0 0 0 0 0 0 0 0 0 0 0 0 0 0 0 0 0 127 0"/>
<feOffset dx="-0.962703" dy="1.92541"/>
<feColorMatrix type="matrix" values="0 0 0 0 0.901961 0 0 0 0 0.505882 0 0 0 0 0.0235294 0 0 0 1 0"/>
<feBlend mode="normal" in2="BackgroundImageFix" result="effect1_dropShadow"/>
<feBlend mode="normal" in="SourceGraphic" in2="effect1_dropShadow" result="shape"/>
</filter>
<filter id="filter1_d" x="186.924" y="119.924" width="15.2543" height="6.93797" filterUnits="userSpaceOnUse" color-interpolation-filters="sRGB">
<feFlood flood-opacity="0" result="BackgroundImageFix"/>
<feColorMatrix in="SourceAlpha" type="matrix" values="0 0 0 0 0 0 0 0 0 0 0 0 0 0 0 0 0 0 127 0"/>
<feOffset dx="0.962703"/>
<feColorMatrix type="matrix" values="0 0 0 0 0.90393 0 0 0 0 0.504599 0 0 0 0 0.0236838 0 0 0 1 0"/>
<feBlend mode="normal" in2="BackgroundImageFix" result="effect1_dropShadow"/>
<feBlend mode="normal" in="SourceGraphic" in2="effect1_dropShadow" result="shape"/>
</filter>
<filter id="filter2_d" x="204.098" y="106.222" width="17.517" height="17.1102" filterUnits="userSpaceOnUse" color-interpolation-filters="sRGB">
<feFlood flood-opacity="0" result="BackgroundImageFix"/>
<feColorMatrix in="SourceAlpha" type="matrix" values="0 0 0 0 0 0 0 0 0 0 0 0 0 0 0 0 0 0 127 0"/>
<feOffset dx="-0.962703"/>
<feColorMatrix type="matrix" values="0 0 0 0 0.270588 0 0 0 0 0.290196 0 0 0 0 0.458824 0 0 0 1 0"/>
<feBlend mode="normal" in2="BackgroundImageFix" result="effect1_dropShadow"/>
<feBlend mode="normal" in="SourceGraphic" in2="effect1_dropShadow" result="shape"/>
</filter>
<filter id="filter3_d" x="202.602" y="130.445" width="18.5356" height="17.1553" filterUnits="userSpaceOnUse" color-interpolation-filters="sRGB">
<feFlood flood-opacity="0" result="BackgroundImageFix"/>
<feColorMatrix in="SourceAlpha" type="matrix" values="0 0 0 0 0 0 0 0 0 0 0 0 0 0 0 0 0 0 127 0"/>
<feOffset dx="0.962703"/>
<feColorMatrix type="matrix" values="0 0 0 0 0.364706 0 0 0 0 0.529412 0 0 0 0 0.74902 0 0 0 1 0"/>
<feBlend mode="normal" in2="BackgroundImageFix" result="effect1_dropShadow"/>
<feBlend mode="normal" in="SourceGraphic" in2="effect1_dropShadow" result="shape"/>
</filter>
<clipPath id="clip0">
<rect width="62.0312" height="18.2904" fill="white" transform="translate(4.88086 121.521) rotate(-25.8941)"/>
</clipPath>
</defs>
</svg>
