<svg width="240" height="240" viewBox="0 0 240 240" fill="none" xmlns="http://www.w3.org/2000/svg">
<rect x="1.77734" y="16.0001" width="238.222" height="208.889" rx="24.1256" fill="#CCD7E1"/>
<mask id="mask0" mask-type="alpha" maskUnits="userSpaceOnUse" x="59" y="125" width="73" height="74">
<ellipse cx="95.0841" cy="161.96" rx="36.0758" ry="36.1954" fill="black"/>
</mask>
<g mask="url(#mask0)">
<ellipse cx="95.0841" cy="161.96" rx="36.0758" ry="36.1954" fill="#E8F3FF"/>
<path d="M78.2646 169.431C78.2646 169.431 69.2557 180.99 85.8324 179.378" stroke="#3375BB" stroke-width="2.29816" stroke-miterlimit="10" stroke-linecap="round" stroke-linejoin="round"/>
<path d="M111.954 174.194C111.954 174.194 121.506 182.126 104.977 180.198" stroke="#3375BB" stroke-width="2.29816" stroke-miterlimit="10" stroke-linecap="round" stroke-linejoin="round"/>
<path d="M94.1131 190.352C86.5116 190.352 75.9775 179.997 75.9775 165.816C75.9775 153.899 79.422 150.324 82.3913 150.324C85.3605 150.324 85.2419 155.329 89.2801 155.21C93.3184 155.09 92.3681 150.205 96.7627 150.205C101.276 150.205 100.445 155.806 102.939 155.806C107.334 155.806 107.215 151.218 111.253 151.218C116.36 151.218 116.36 161.168 116.36 165.22C116.361 178.567 105.159 190.352 94.1131 190.352Z" fill="#94C4F4" stroke="#3375BB" stroke-width="0.153211" stroke-miterlimit="10"/>
<path d="M100.048 167.524C100.268 167.524 100.492 167.608 100.684 167.822C101.076 168.258 101.009 168.712 100.698 169.228C100.375 169.762 98.8208 171.063 97.9823 171.063C97.8281 171.063 97.6983 171.019 97.6045 170.919C97.0419 170.312 98.6649 168.47 99.2903 167.853C99.4755 167.67 99.7573 167.524 100.048 167.524ZM100.048 164.79H100.048C99.0693 164.79 98.0968 165.196 97.3796 165.904C96.9216 166.356 96.2515 167.106 95.7448 167.858C95.3606 168.428 95.0974 168.952 94.9402 169.46C94.5568 170.699 94.8009 171.909 95.6101 172.781C96.218 173.436 97.0604 173.797 97.9822 173.797C98.9683 173.797 100.002 173.39 101.143 172.552C101.539 172.261 102.516 171.492 103.028 170.645C103.999 169.036 103.88 167.297 102.709 165.992C102.014 165.217 101.069 164.79 100.048 164.79Z" fill="#EA0070"/>
<path d="M90.8125 167.695C90.9172 167.695 91.0221 167.709 91.1213 167.736C91.4706 167.829 91.7741 168.066 92.0423 168.328C92.3884 168.668 93.9058 170.582 93.2609 170.875C93.2123 170.898 93.1517 170.907 93.0825 170.907C92.6631 170.907 91.929 170.551 91.6529 170.431C91.1523 170.215 90.6236 169.988 90.2409 169.584C89.8602 169.181 89.5772 168.685 90.1188 167.998C90.2864 167.786 90.5488 167.695 90.8125 167.695ZM90.8125 164.961C89.6858 164.961 88.6542 165.45 87.9821 166.302C87.2427 167.239 86.9506 168.347 87.1596 169.421C87.304 170.164 87.6656 170.833 88.2648 171.466C89.0301 172.275 89.9176 172.658 90.5657 172.938L90.5755 172.942C90.6027 172.954 90.6358 172.969 90.6737 172.986C91.3823 173.303 92.2112 173.641 93.0826 173.641C93.5457 173.641 93.9847 173.548 94.3871 173.365C95.286 172.956 95.925 172.126 96.0964 171.146C96.3228 169.851 95.7055 168.716 95.1426 167.872C94.772 167.316 94.2798 166.699 93.9458 166.372C93.2752 165.716 92.5815 165.298 91.8248 165.095C91.4943 165.006 91.1537 164.961 90.8125 164.961Z" fill="#EA0070"/>
<path d="M102.967 184.946H87.7664L86.2954 173.904L104.928 173.469L102.967 184.946Z" fill="#FBDA3C" stroke="#FBDA3C" stroke-width="2.29816" stroke-miterlimit="10" stroke-linecap="round" stroke-linejoin="round"/>
<path d="M93.5568 172.25L97.8038 172.095L98.2149 186.114H93.0088L93.5568 172.25Z" fill="#EA0070"/>
<path d="M104.937 181.029L86.3098 181.938L85.7617 178.776L105.485 177.455L104.937 181.029Z" fill="#EA0070"/>
<path d="M77.6562 178.504C79.1428 179.361 82.6796 179.888 86.8238 179.485" stroke="#3375BB" stroke-width="2.29816" stroke-miterlimit="10" stroke-linecap="round" stroke-linejoin="round"/>
<path d="M113.04 180.073C111.611 180.545 109.109 180.68 104.977 180.197" stroke="#3375BB" stroke-width="2.29816" stroke-miterlimit="10" stroke-linecap="round" stroke-linejoin="round"/>
<path d="M106.316 161.038C105.365 161.038 104.84 160.264 104.84 159.31C104.84 158.356 105.611 157.582 106.562 157.582C107.513 157.582 108.284 158.603 108.284 159.557C108.284 160.511 107.267 161.038 106.316 161.038Z" fill="#3375BB"/>
<path d="M87.1426 158.655C87.1426 159.577 86.3981 160.085 85.4797 160.085C84.5613 160.085 83.8169 159.338 83.8169 158.417C83.8169 157.495 84.7989 156.749 85.7173 156.749C86.6357 156.749 87.1426 157.734 87.1426 158.655Z" fill="#3375BB"/>
<path d="M116.804 149.419L120.472 147.64C121.098 147.336 121.85 147.599 122.153 148.227C122.456 148.855 122.194 149.61 121.568 149.914C121.487 149.953 121.397 149.984 121.314 150.005L117.352 150.959C116.912 151.066 116.469 150.794 116.364 150.352C116.272 149.969 116.464 149.584 116.804 149.419Z" fill="#3375BB"/>
<path d="M114.112 147.302L116.029 142.995C116.312 142.359 117.056 142.074 117.69 142.358C118.323 142.642 118.608 143.388 118.325 144.024C118.293 144.094 118.252 144.166 118.21 144.228L115.532 148.105C115.275 148.478 114.765 148.571 114.393 148.312C114.064 148.083 113.954 147.656 114.112 147.302Z" fill="#3375BB"/>
<path d="M110.465 147.02L110.028 142.919C109.954 142.226 110.455 141.604 111.146 141.53C111.837 141.455 112.457 141.958 112.531 142.651C112.541 142.74 112.54 142.834 112.531 142.919L112.095 147.02C112.047 147.472 111.643 147.799 111.193 147.751C110.802 147.709 110.505 147.397 110.465 147.02Z" fill="#3375BB"/>
<path opacity="0.5" d="M106.511 196.913C106.511 197.819 100.312 198.554 93.8407 198.554C87.3698 198.554 83.2139 197.682 83.2139 196.777C83.2139 195.871 89.4134 195 95.8844 195C102.355 195 106.511 196.007 106.511 196.913Z" fill="#94C4F4"/>
<path opacity="0.5" d="M121.089 188.712C121.089 189.24 120.662 189.532 120.135 189.532C119.609 189.532 119.182 189.104 119.182 188.575C119.182 188.047 119.745 187.618 120.272 187.618C120.798 187.618 121.089 188.183 121.089 188.712Z" fill="#94C4F4"/>
<path opacity="0.5" d="M70.5431 142.236C70.5431 142.764 70.1161 143.056 69.5894 143.056C69.0627 143.056 68.6357 142.628 68.6357 142.099C68.6357 141.571 69.199 141.142 69.7257 141.142C70.2524 141.142 70.5431 141.707 70.5431 142.236Z" fill="#94C4F4"/>
<path opacity="0.5" d="M75.3121 149.139C75.3121 149.931 74.725 150.369 74.0008 150.369C73.2765 150.369 72.6895 149.726 72.6895 148.934C72.6895 148.141 73.4639 147.498 74.1881 147.498C74.9124 147.498 75.3121 148.346 75.3121 149.139Z" fill="#94C4F4"/>
<path d="M60.6494 163.71L60.911 167.814" stroke="#D4E8FB" stroke-width="0.766054" stroke-miterlimit="10" stroke-linecap="round"/>
<path d="M62.2072 164.582L59.6587 167.077" stroke="#D4E8FB" stroke-width="0.766054" stroke-miterlimit="10" stroke-linecap="round"/>
<path d="M62.7131 166.443L58.8457 165.081" stroke="#D4E8FB" stroke-width="0.766054" stroke-miterlimit="10" stroke-linecap="round"/>
<path d="M71.1401 153.185L71.4018 157.289" stroke="#D4E8FB" stroke-width="0.766054" stroke-miterlimit="10" stroke-linecap="round"/>
<path d="M72.698 154.056L70.1494 156.552" stroke="#D4E8FB" stroke-width="0.766054" stroke-miterlimit="10" stroke-linecap="round"/>
<path d="M73.2043 155.918L69.3369 154.556" stroke="#D4E8FB" stroke-width="0.766054" stroke-miterlimit="10" stroke-linecap="round"/>
<path d="M93.7247 160.551C93.713 160.547 93.7316 160.563 93.744 160.575C93.7552 160.587 93.7721 160.6 93.7895 160.613C93.8226 160.639 93.8571 160.666 93.8972 160.691C93.9713 160.744 94.0568 160.789 94.1394 160.836C94.3115 160.922 94.4919 160.999 94.6797 161.056C95.0549 161.169 95.449 161.228 95.8426 161.221C96.2353 161.208 96.6306 161.169 97.0119 161.044C97.1078 161.018 97.2036 160.992 97.2965 160.95L97.5762 160.838C97.7603 160.756 97.9389 160.653 98.1171 160.559L98.2068 160.512C98.7085 160.248 99.3287 160.442 99.5919 160.945C99.8552 161.449 99.6618 162.071 99.16 162.335C99.1222 162.355 99.0779 162.374 99.0389 162.389C98.7816 162.485 98.535 162.598 98.2749 162.683C98.0091 162.757 97.7548 162.856 97.4805 162.903C97.3453 162.932 97.2112 162.963 97.0757 162.989L96.663 163.041C96.5264 163.063 96.3871 163.068 96.2482 163.074C96.1092 163.077 95.9709 163.092 95.8315 163.082L95.4145 163.067L94.9996 163.019C94.7244 162.979 94.4508 162.926 94.1807 162.856C93.9101 162.788 93.6435 162.701 93.3771 162.605C93.2447 162.551 93.1117 162.502 92.9774 162.441C92.9112 162.412 92.8424 162.38 92.7732 162.346L92.6661 162.292C92.6283 162.272 92.5965 162.257 92.5361 162.219C92.077 161.889 91.9708 161.249 92.299 160.788C92.6274 160.328 93.2655 160.222 93.7247 160.551Z" fill="#3375BB"/>
</g>
<ellipse cx="179.134" cy="81.7468" rx="33.4263" ry="33.5371" fill="white"/>
<path d="M179.126 56.5938C179.126 56.7517 179.126 56.9095 179.126 57.0674C179.126 62.9084 179.126 68.8282 179.126 74.6692C179.126 74.7481 179.126 74.906 179.126 74.9849C179.126 75.0639 179.046 75.1428 178.966 75.1428C178.407 75.3796 177.927 75.6164 177.368 75.8532C176.649 76.1689 175.85 76.4846 175.131 76.8793C174.252 77.274 173.373 77.6686 172.494 78.0633C171.775 78.379 171.056 78.6947 170.337 79.0105C169.458 79.4051 168.579 79.7998 167.7 80.1944C166.981 80.5102 166.262 80.8259 165.463 81.2206C164.904 81.4573 164.264 81.7731 163.705 82.0099C163.625 82.0099 163.625 82.0888 163.545 82.0099C163.545 82.0099 163.545 82.0099 163.465 82.0099C163.705 81.6152 163.945 81.2995 164.184 80.9048C165.463 78.7737 166.821 76.6425 168.1 74.5113C169.458 72.2223 170.896 69.9333 172.254 67.6443C173.533 65.5131 174.811 63.382 176.09 61.3297C177.048 59.7511 178.007 58.2514 178.886 56.6727C179.046 56.6727 179.046 56.5938 179.126 56.5938C179.046 56.5938 179.126 56.5938 179.126 56.5938Z" fill="#828384"/>
<path d="M194.626 82.0102C193.428 82.7995 192.15 83.5099 190.951 84.2202C187.036 86.5093 183.201 88.7194 179.286 91.0084C179.206 91.0084 179.206 91.0873 179.126 91.0873C179.046 91.0873 179.046 91.0084 179.046 91.0084C179.046 90.9295 179.046 90.8505 179.046 90.7716C179.046 85.641 179.046 80.5104 179.046 75.3799C179.046 75.3009 179.046 75.222 179.046 75.1431C179.046 75.0641 179.126 75.0641 179.206 75.0641C179.525 75.222 179.845 75.3799 180.244 75.5377C181.203 76.0113 182.242 76.406 183.201 76.8796C184.08 77.2742 184.879 77.6689 185.758 77.9846C186.636 78.3793 187.435 78.7739 188.314 79.1686C189.033 79.4843 189.832 79.8001 190.552 80.1947C191.271 80.5104 192.07 80.8262 192.789 81.2208C193.348 81.4576 193.907 81.7734 194.547 82.0102C194.547 81.9312 194.547 82.0102 194.626 82.0102Z" fill="#131313"/>
<path d="M179.126 106.558C179.126 106.558 179.046 106.558 179.126 106.558C179.046 106.558 179.046 106.558 178.966 106.479C177.368 104.269 175.85 102.138 174.252 99.9276C172.654 97.7175 171.056 95.5074 169.458 93.2973C167.94 91.1661 166.342 89.035 164.824 86.8249C164.424 86.2724 164.025 85.7198 163.625 85.1673C163.625 85.0884 163.545 85.0884 163.545 85.0095C163.625 85.0095 163.625 85.0884 163.705 85.0884C165.863 86.3513 168.1 87.6142 170.257 88.8771C172.734 90.3768 175.291 91.7976 177.768 93.2973C178.167 93.5341 178.647 93.7709 179.046 94.0077C179.126 94.0077 179.126 94.0866 179.126 94.1656C179.126 94.2445 179.126 94.3234 179.126 94.4024C179.126 98.3489 179.126 102.217 179.126 106.163C179.126 106.242 179.126 106.4 179.126 106.558Z" fill="#828384"/>
<path d="M163.545 82.0099C163.545 82.0099 163.621 82.0099 163.545 82.0099C163.621 82.0099 163.621 82.0099 163.545 82.0099C163.545 82.0843 163.545 82.0843 163.545 82.0099Z" fill="#808080"/>
<path d="M163.625 82.0888C163.625 82.0099 163.625 82.0099 163.625 82.0888C164.424 81.6941 165.223 81.3784 166.022 80.9837C167.061 80.5102 168.1 80.0366 169.139 79.563C169.938 79.1683 170.737 78.8526 171.536 78.4579C172.654 77.9054 173.853 77.4318 174.971 76.8793C175.77 76.5636 176.569 76.1689 177.368 75.8532C177.928 75.6164 178.487 75.3796 179.046 75.0639C179.126 75.0639 179.126 74.9849 179.206 74.9849C179.206 74.9849 179.206 74.9849 179.206 75.0639C179.206 75.1428 179.206 75.1428 179.206 75.2217C179.206 80.4312 179.206 85.6407 179.206 90.8502C179.206 90.9292 179.206 91.0081 179.206 91.087C179.126 91.166 179.126 91.087 179.046 91.087C178.807 90.9292 178.567 90.8502 178.407 90.6924C173.533 87.8508 168.659 85.0093 163.785 82.1677C163.705 82.0888 163.625 82.0888 163.625 82.0888Z" fill="#343535"/>
<path d="M194.546 85.0095C194.546 85.0884 194.546 85.0884 194.466 85.1673C189.832 91.6397 185.198 98.0332 180.564 104.506C180.084 105.216 179.605 105.847 179.125 106.558C179.125 106.558 179.125 106.558 179.125 106.479C179.125 106.4 179.125 106.4 179.125 106.321C179.125 102.296 179.125 98.27 179.125 94.2445C179.125 94.1656 179.125 94.0866 179.125 94.0077C180.164 93.3762 181.203 92.7448 182.242 92.1923C186.317 89.8243 190.391 87.4563 194.466 85.0884C194.466 85.0095 194.546 85.0095 194.546 85.0095Z" fill="#2F3030"/>
<path d="M179.125 75.0639C179.125 74.985 179.125 74.906 179.125 74.906C179.125 68.9072 179.125 62.8295 179.125 56.8307C179.125 56.7517 179.125 56.6728 179.125 56.6728C184.239 65.0396 189.353 73.4063 194.466 81.7731C194.546 81.852 194.626 81.931 194.626 82.0099C194.307 81.8521 193.987 81.6942 193.587 81.5363C193.188 81.3785 192.788 81.1417 192.389 80.9838C192.149 80.9049 191.91 80.747 191.59 80.6681C191.19 80.5102 190.711 80.2734 190.312 80.1155C190.072 80.0366 189.832 79.8788 189.592 79.7998C189.033 79.563 188.474 79.3262 187.915 79.0894C187.595 78.9316 187.355 78.8526 187.036 78.6948C186.636 78.5369 186.237 78.3001 185.837 78.1423C185.597 78.0633 185.358 77.9055 185.118 77.8265C184.559 77.5897 183.999 77.3529 183.44 77.1161C183.12 76.9583 182.881 76.8793 182.561 76.7215C182.162 76.5636 181.762 76.3268 181.363 76.169C181.123 76.0111 180.803 75.9322 180.564 75.7743C180.084 75.5375 179.605 75.3007 179.125 75.0639Z" fill="#2F3030"/>
<path d="M180.043 196.087C197.852 196.087 212.289 181.825 212.289 164.232C212.289 146.639 197.852 132.377 180.043 132.377C162.234 132.377 147.797 146.639 147.797 164.232C147.797 181.825 162.234 196.087 180.043 196.087Z" fill="#F89B2B"/>
<path fill-rule="evenodd" clip-rule="evenodd" d="M170.277 147.953C171.396 148.254 172.515 148.455 173.634 148.757C174.753 149.058 175.872 149.259 176.991 149.561C177.296 149.661 177.398 149.561 177.5 149.259C177.907 147.551 178.313 145.943 178.72 144.235C178.822 143.933 178.924 143.833 179.229 143.933C180.246 144.235 181.162 144.436 182.179 144.637C182.484 144.737 182.484 144.838 182.382 145.039C181.975 146.646 181.569 148.355 181.162 149.962C181.162 150.063 181.162 150.163 181.06 150.364C181.874 150.565 182.789 150.766 183.603 150.967C183.705 150.967 183.806 150.766 183.908 150.666C184.213 149.36 184.519 148.154 184.925 146.847C185.027 146.445 185.129 146.043 185.231 145.641C185.231 145.44 185.332 145.34 185.536 145.44C186.553 145.742 187.57 145.943 188.689 146.244C188.791 146.244 188.791 146.345 188.893 146.345C188.587 147.651 188.282 148.857 187.977 150.063C187.875 150.565 187.774 151.068 187.57 151.57C187.468 151.872 187.57 151.972 187.875 152.073C188.994 152.575 190.113 153.078 191.232 153.58C192.249 154.183 193.165 154.987 193.877 155.992C194.792 157.499 194.894 159.107 194.487 160.715C194.182 161.82 193.775 162.825 192.961 163.629C192.351 164.232 191.537 164.634 190.724 164.935C190.622 164.935 190.52 165.036 190.317 165.036C190.724 165.337 191.13 165.538 191.537 165.84C192.758 166.744 193.572 167.85 193.979 169.256C194.182 170.362 194.08 171.568 193.775 172.673C193.368 174.08 192.86 175.286 191.944 176.391C190.825 177.697 189.401 178.401 187.774 178.602C185.637 178.903 183.603 178.702 181.569 178.401C181.263 178.3 181.06 178.401 180.958 178.702C180.551 180.31 180.144 182.018 179.738 183.626C179.636 184.028 179.636 184.129 179.127 183.928C178.212 183.727 177.195 183.425 176.279 183.224C175.974 183.124 175.974 183.023 176.076 182.822C176.482 181.114 176.889 179.406 177.398 177.798C177.398 177.597 177.5 177.496 177.296 177.396C176.482 177.195 175.669 176.994 174.753 176.793C174.55 177.697 174.245 178.602 174.041 179.506C173.838 180.411 173.533 181.315 173.329 182.219C173.227 182.42 173.227 182.521 172.922 182.42C171.905 182.119 170.888 181.918 169.871 181.717C169.565 181.617 169.565 181.516 169.667 181.315C170.074 179.607 170.481 177.898 170.99 176.291C170.99 176.19 171.091 176.09 171.091 175.889C168.752 175.286 166.412 174.683 163.971 174.08C164.174 173.678 164.276 173.376 164.479 172.974C164.886 172.07 165.293 171.166 165.598 170.362C165.7 170.06 165.802 170.06 166.107 170.06C166.819 170.261 167.633 170.462 168.345 170.563C169.159 170.764 169.769 170.362 169.871 169.658C171.193 164.533 172.515 159.408 173.736 154.183C173.939 153.379 173.431 152.475 172.515 152.173C171.6 151.872 170.684 151.671 169.871 151.47C169.667 151.47 169.565 151.369 169.667 151.168C169.972 150.063 170.277 148.857 170.583 147.752C170.176 148.053 170.176 148.053 170.277 147.953ZM175.465 172.773C175.567 172.773 175.669 172.874 175.669 172.874C177.296 173.276 179.026 173.778 180.755 173.879C181.975 173.979 183.094 173.979 184.213 173.577C186.146 172.974 186.96 170.462 185.841 168.854C185.332 168.05 184.519 167.548 183.705 167.046C181.874 166.041 179.738 165.639 177.703 165.237C177.398 165.136 177.398 165.237 177.296 165.538C177.093 166.543 176.788 167.448 176.584 168.452C176.177 169.859 175.872 171.266 175.465 172.773ZM184.01 162.524C184.213 162.524 184.722 162.423 185.129 162.323C187.062 161.921 188.079 159.71 187.062 158.002C186.553 157.097 185.637 156.494 184.722 156.092C183.298 155.489 181.874 155.188 180.348 154.786C180.043 154.685 179.941 154.786 179.839 155.087C179.331 157.198 178.822 159.207 178.212 161.318C178.11 161.519 178.212 161.619 178.415 161.72C178.822 161.82 179.127 161.921 179.534 162.021C181.06 162.222 182.382 162.524 184.01 162.524Z" fill="white"/>
<path d="M99.592 110.909C116.772 110.909 130.7 96.935 130.7 79.6978C130.7 62.4605 116.772 48.487 99.592 48.487C82.4117 48.487 68.4844 62.4605 68.4844 79.6978C68.4844 96.935 82.4117 110.909 99.592 110.909Z" fill="#15BDFF"/>
<path d="M97.138 96.7347L82.1714 66.1325C82.0605 65.9034 82.0746 65.6331 82.2088 65.4169C82.343 65.2006 82.5785 65.0687 82.8324 65.0674H88.0196C88.2976 65.0674 88.5582 65.2235 88.6807 65.4693L99.6111 87.6699C100.583 89.6596 103.404 89.6596 104.378 87.6699L115.274 65.4868C115.402 65.2393 115.657 65.0843 115.935 65.085H116.58C116.963 65.085 117.206 65.4868 117.033 65.8185L101.907 96.7366C100.933 98.7263 98.114 98.7263 97.138 96.7366V96.7347Z" fill="white"/>
<rect x="14.2222" y="29.3333" width="214.222" height="183.111" rx="18.0942" fill="#B3C1D0" fill-opacity="0.8"/>
<path d="M40.7617 47.4521C40.7617 32.6799 53.9177 21.3767 68.5212 23.6017L111.448 30.1423C123.232 31.9379 131.939 42.0717 131.939 53.9926V188.681C131.939 200.004 124.064 209.804 113.006 212.241L70.0792 221.701C55.0236 225.018 40.7617 213.557 40.7617 198.14V47.4521Z" fill="#A1B0C0"/>
<path d="M17.1631 34.7213C17.1631 22.8132 25.8516 12.6862 37.6214 10.8761L80.5478 4.27434C95.1616 2.02682 108.341 13.3338 108.341 28.1195V213.639C108.341 227.805 96.1931 238.922 82.0828 237.67L39.1564 233.862C26.7075 232.757 17.1631 222.328 17.1631 209.83V34.7213Z" fill="#CCD7E1"/>
<path d="M0 35.6621C0 23.336 9.29149 12.9922 21.547 11.6747L63.4007 7.17551C77.6632 5.64232 90.1048 16.8182 90.1048 31.1629V213.079C90.1048 227.252 77.944 238.372 63.8266 237.108L21.973 233.358C9.53279 232.244 0 221.819 0 209.329V35.6621Z" fill="#ECF0F4"/>
<ellipse cx="44.109" cy="120.835" rx="18.2355" ry="26.9058" fill="#CCD7E1"/>
<ellipse cx="37.6734" cy="120.835" rx="12.8721" ry="18.296" fill="white"/>
<path d="M115.849 85.5606C115.849 81.1027 119.463 77.4888 123.921 77.4888H134.085V93.6323H123.921C119.463 93.6323 115.849 90.0185 115.849 85.5606Z" fill="#CCD7E1"/>
<ellipse cx="135.693" cy="85.5606" rx="6.97239" ry="8.07175" fill="#ECF0F4"/>
<path d="M115.849 116.771C115.849 112.313 119.463 108.7 123.921 108.7H134.085V124.843H123.921C119.463 124.843 115.849 121.229 115.849 116.771Z" fill="#CCD7E1"/>
<ellipse cx="135.693" cy="116.771" rx="6.97239" ry="8.07175" fill="#ECF0F4"/>
<path d="M115.849 145.83C115.849 141.372 119.463 137.758 123.921 137.758H134.085V153.901H123.921C119.463 153.901 115.849 150.288 115.849 145.83Z" fill="#CCD7E1"/>
<ellipse cx="135.693" cy="145.83" rx="6.97239" ry="8.07175" fill="#ECF0F4"/>
<circle cx="119.636" cy="120" r="43.6364" fill="#48C464"/>
<g clip-path="url(#clip0)">
<path d="M119.881 137.762C111.28 137.762 104.112 130.594 104.112 121.993C104.112 113.392 111.28 106.224 119.881 106.224C123.321 106.224 126.189 107.371 129.056 109.091H121.315V114.825H138.517V97.6224H132.783V104.79C129.056 101.923 124.755 100.49 119.881 100.49C108.126 100.49 98.3774 110.238 98.3774 121.993C98.3774 133.748 108.126 143.497 119.881 143.497C131.636 143.497 141.384 133.748 141.384 121.993H135.65C135.65 130.594 128.482 137.762 119.881 137.762Z" fill="white"/>
</g>
<defs>
<clipPath id="clip0">
<rect width="45.8741" height="45.8741" fill="white" transform="translate(98.3774 97.6224)"/>
</clipPath>
</defs>
</svg>
