<svg width="240" height="240" viewBox="0 0 240 240" fill="none" xmlns="http://www.w3.org/2000/svg">
<rect x="1.77734" y="16" width="238.222" height="208.889" rx="24.1256" fill="#CCD7E1"/>
<rect x="14.2227" y="29.3333" width="214.222" height="183.111" rx="18.0942" fill="#B3C1D0"/>
<mask id="mask0" mask-type="alpha" maskUnits="userSpaceOnUse" x="59" y="125" width="73" height="74">
<ellipse cx="95.0836" cy="161.96" rx="36.0758" ry="36.1954" fill="black"/>
</mask>
<g mask="url(#mask0)">
<ellipse cx="95.0836" cy="161.96" rx="36.0758" ry="36.1954" fill="#E8F3FF"/>
<path d="M78.2631 169.431C78.2631 169.431 69.2542 180.99 85.8309 179.378" stroke="#3375BB" stroke-width="2.29816" stroke-miterlimit="10" stroke-linecap="round" stroke-linejoin="round"/>
<path d="M111.953 174.194C111.953 174.194 121.505 182.126 104.976 180.198" stroke="#3375BB" stroke-width="2.29816" stroke-miterlimit="10" stroke-linecap="round" stroke-linejoin="round"/>
<path d="M94.1121 190.352C86.5107 190.352 75.9766 179.997 75.9766 165.816C75.9766 153.899 79.421 150.324 82.3903 150.324C85.3595 150.324 85.2409 155.329 89.2791 155.21C93.3174 155.091 92.3671 150.205 96.7618 150.205C101.275 150.205 100.444 155.806 102.938 155.806C107.333 155.806 107.214 151.218 111.252 151.218C116.359 151.218 116.359 161.168 116.359 165.22C116.36 178.567 105.158 190.352 94.1121 190.352Z" fill="#94C4F4" stroke="#3375BB" stroke-width="0.153211" stroke-miterlimit="10"/>
<path d="M100.047 167.524C100.267 167.524 100.491 167.608 100.683 167.822C101.075 168.258 101.008 168.712 100.697 169.228C100.374 169.762 98.8198 171.063 97.9814 171.063C97.8271 171.063 97.6973 171.019 97.6036 170.919C97.0409 170.312 98.6639 168.47 99.2893 167.853C99.4746 167.67 99.7563 167.524 100.047 167.524ZM100.047 164.79H100.047C99.0683 164.79 98.0958 165.196 97.3786 165.904C96.9206 166.356 96.2505 167.106 95.7439 167.858C95.3597 168.428 95.0964 168.952 94.9392 169.46C94.5558 170.699 94.8 171.909 95.6091 172.781C96.217 173.436 97.0594 173.797 97.9812 173.797C98.9673 173.797 100.001 173.39 101.142 172.552C101.538 172.26 102.515 171.492 103.027 170.645C103.998 169.036 103.879 167.297 102.708 165.992C102.013 165.217 101.068 164.79 100.047 164.79Z" fill="#EA0070"/>
<path d="M90.8116 167.695C90.9162 167.695 91.0211 167.709 91.1203 167.736C91.4696 167.829 91.7732 168.066 92.0413 168.328C92.3875 168.668 93.9048 170.582 93.26 170.875C93.2113 170.898 93.1507 170.907 93.0815 170.907C92.6621 170.907 91.9281 170.551 91.6519 170.431C91.1513 170.215 90.6226 169.988 90.2399 169.584C89.8592 169.181 89.5763 168.685 90.1178 167.998C90.2854 167.785 90.5478 167.695 90.8116 167.695ZM90.8116 164.961C89.6848 164.961 88.6532 165.45 87.9811 166.302C87.2418 167.239 86.9496 168.347 87.1586 169.421C87.3031 170.164 87.6646 170.833 88.2638 171.466C89.0291 172.275 89.9166 172.658 90.5647 172.938L90.5745 172.942C90.6018 172.954 90.6349 172.969 90.6727 172.986C91.3813 173.303 92.2102 173.641 93.0816 173.641C93.5447 173.641 93.9837 173.548 94.3861 173.365C95.2851 172.956 95.924 172.126 96.0954 171.146C96.3219 169.851 95.7046 168.716 95.1416 167.872C94.771 167.316 94.2788 166.699 93.9449 166.372C93.2743 165.716 92.5805 165.298 91.8238 165.095C91.4933 165.006 91.1527 164.961 90.8116 164.961Z" fill="#EA0070"/>
<path d="M102.965 184.946H87.7649L86.2939 173.904L104.926 173.469L102.965 184.946Z" fill="#FBDA3C" stroke="#FBDA3C" stroke-width="2.29816" stroke-miterlimit="10" stroke-linecap="round" stroke-linejoin="round"/>
<path d="M93.5558 172.25L97.8028 172.095L98.2139 186.114H93.0078L93.5558 172.25Z" fill="#EA0070"/>
<path d="M104.936 181.029L86.3088 181.937L85.7607 178.776L105.484 177.455L104.936 181.029Z" fill="#EA0070"/>
<path d="M77.6553 178.504C79.1418 179.36 82.6786 179.888 86.8229 179.485" stroke="#3375BB" stroke-width="2.29816" stroke-miterlimit="10" stroke-linecap="round" stroke-linejoin="round"/>
<path d="M113.039 180.073C111.61 180.546 109.108 180.68 104.976 180.198" stroke="#3375BB" stroke-width="2.29816" stroke-miterlimit="10" stroke-linecap="round" stroke-linejoin="round"/>
<path d="M106.315 161.038C105.364 161.038 104.839 160.264 104.839 159.31C104.839 158.356 105.61 157.582 106.561 157.582C107.512 157.582 108.283 158.603 108.283 159.557C108.283 160.511 107.266 161.038 106.315 161.038Z" fill="#3375BB"/>
<path d="M87.1411 158.655C87.1411 159.577 86.3967 160.085 85.4783 160.085C84.5599 160.085 83.8154 159.338 83.8154 158.417C83.8154 157.495 84.7975 156.749 85.7159 156.749C86.6343 156.749 87.1411 157.734 87.1411 158.655Z" fill="#3375BB"/>
<path d="M116.803 149.419L120.471 147.64C121.097 147.336 121.849 147.599 122.152 148.227C122.455 148.855 122.193 149.61 121.567 149.914C121.486 149.953 121.396 149.984 121.313 150.005L117.351 150.959C116.911 151.066 116.468 150.794 116.363 150.352C116.271 149.969 116.463 149.584 116.803 149.419Z" fill="#3375BB"/>
<path d="M114.111 147.302L116.028 142.995C116.312 142.359 117.055 142.074 117.689 142.358C118.322 142.642 118.607 143.388 118.324 144.024C118.292 144.094 118.251 144.166 118.209 144.228L115.531 148.105C115.274 148.478 114.764 148.57 114.392 148.312C114.063 148.083 113.953 147.656 114.111 147.302Z" fill="#3375BB"/>
<path d="M110.463 147.02L110.027 142.919C109.953 142.226 110.453 141.604 111.145 141.53C111.836 141.455 112.456 141.958 112.53 142.651C112.539 142.74 112.538 142.834 112.53 142.919L112.093 147.02C112.045 147.472 111.641 147.799 111.191 147.751C110.8 147.709 110.503 147.397 110.463 147.02Z" fill="#3375BB"/>
<path opacity="0.5" d="M106.51 196.913C106.51 197.819 100.311 198.554 93.8398 198.554C87.3688 198.554 83.2129 197.683 83.2129 196.777C83.2129 195.871 89.4124 195 95.8834 195C102.354 195 106.51 196.007 106.51 196.913Z" fill="#94C4F4"/>
<path opacity="0.5" d="M121.088 188.712C121.088 189.24 120.661 189.532 120.134 189.532C119.608 189.532 119.181 189.104 119.181 188.575C119.181 188.047 119.744 187.618 120.271 187.618C120.797 187.618 121.088 188.183 121.088 188.712Z" fill="#94C4F4"/>
<path opacity="0.5" d="M70.5422 142.236C70.5422 142.764 70.1152 143.056 69.5885 143.056C69.0617 143.056 68.6348 142.627 68.6348 142.099C68.6348 141.571 69.198 141.142 69.7247 141.142C70.2514 141.142 70.5422 141.707 70.5422 142.236Z" fill="#94C4F4"/>
<path opacity="0.5" d="M75.3111 149.139C75.3111 149.931 74.7241 150.369 73.9998 150.369C73.2755 150.369 72.6885 149.726 72.6885 148.934C72.6885 148.141 73.4629 147.498 74.1871 147.498C74.9114 147.498 75.3111 148.346 75.3111 149.139Z" fill="#94C4F4"/>
<path d="M60.6484 163.71L60.9101 167.814" stroke="#D4E8FB" stroke-width="0.766054" stroke-miterlimit="10" stroke-linecap="round"/>
<path d="M62.2067 164.582L59.6582 167.077" stroke="#D4E8FB" stroke-width="0.766054" stroke-miterlimit="10" stroke-linecap="round"/>
<path d="M62.7121 166.443L58.8447 165.081" stroke="#D4E8FB" stroke-width="0.766054" stroke-miterlimit="10" stroke-linecap="round"/>
<path d="M71.1396 153.185L71.4013 157.289" stroke="#D4E8FB" stroke-width="0.766054" stroke-miterlimit="10" stroke-linecap="round"/>
<path d="M72.697 154.056L70.1484 156.552" stroke="#D4E8FB" stroke-width="0.766054" stroke-miterlimit="10" stroke-linecap="round"/>
<path d="M73.2033 155.918L69.3359 154.556" stroke="#D4E8FB" stroke-width="0.766054" stroke-miterlimit="10" stroke-linecap="round"/>
<path d="M93.7237 160.551C93.712 160.547 93.7306 160.563 93.743 160.575C93.7542 160.587 93.7711 160.6 93.7886 160.613C93.8217 160.639 93.8561 160.667 93.8962 160.691C93.9703 160.744 94.0559 160.789 94.1384 160.836C94.3105 160.922 94.4909 160.999 94.6788 161.056C95.054 161.169 95.448 161.228 95.8416 161.221C96.2344 161.208 96.6296 161.169 97.0109 161.044C97.1069 161.018 97.2026 160.992 97.2956 160.95L97.5753 160.838C97.7593 160.756 97.9379 160.653 98.1161 160.559L98.2058 160.512C98.7076 160.248 99.3277 160.442 99.591 160.945C99.8542 161.449 99.6609 162.071 99.1591 162.335C99.1212 162.355 99.0769 162.374 99.038 162.389C98.7806 162.485 98.534 162.598 98.2739 162.683C98.0081 162.757 97.7539 162.856 97.4795 162.903C97.3443 162.932 97.2103 162.964 97.0747 162.989L96.662 163.041C96.5254 163.063 96.3861 163.068 96.2472 163.074C96.1082 163.077 95.9699 163.092 95.8305 163.082L95.4135 163.067L94.9987 163.019C94.7234 162.979 94.4499 162.926 94.1797 162.856C93.9091 162.788 93.6425 162.701 93.3761 162.605C93.2437 162.551 93.1107 162.502 92.9764 162.441C92.9102 162.412 92.8414 162.38 92.7722 162.346L92.6651 162.292C92.6274 162.272 92.5955 162.257 92.5351 162.219C92.076 161.889 91.9699 161.249 92.2981 160.788C92.6264 160.328 93.2646 160.222 93.7237 160.551Z" fill="#3375BB"/>
</g>
<ellipse cx="179.134" cy="81.7467" rx="33.4263" ry="33.5371" fill="white"/>
<path d="M179.126 56.5938C179.126 56.7517 179.126 56.9095 179.126 57.0674C179.126 62.9084 179.126 68.8283 179.126 74.6692C179.126 74.7481 179.126 74.906 179.126 74.9849C179.126 75.0639 179.046 75.1428 178.966 75.1428C178.407 75.3796 177.928 75.6164 177.368 75.8532C176.649 76.1689 175.85 76.4846 175.131 76.8793C174.252 77.274 173.373 77.6686 172.495 78.0633C171.775 78.379 171.056 78.6947 170.337 79.0105C169.458 79.4051 168.579 79.7998 167.701 80.1944C166.981 80.5102 166.262 80.8259 165.463 81.2206C164.904 81.4573 164.265 81.7731 163.706 82.0099C163.626 82.0099 163.626 82.0888 163.546 82.0099C163.546 82.0099 163.546 82.0099 163.466 82.0099C163.706 81.6152 163.945 81.2995 164.185 80.9048C165.463 78.7737 166.822 76.6425 168.1 74.5113C169.458 72.2223 170.897 69.9333 172.255 67.6443C173.533 65.5131 174.812 63.382 176.09 61.3297C177.049 59.7511 178.008 58.2514 178.887 56.6727C179.046 56.6727 179.046 56.5938 179.126 56.5938C179.046 56.5938 179.126 56.5938 179.126 56.5938Z" fill="#828384"/>
<path d="M194.626 82.01C193.428 82.7993 192.15 83.5097 190.951 84.2201C187.036 86.5091 183.201 88.7192 179.286 91.0083C179.206 91.0083 179.206 91.0872 179.126 91.0872C179.046 91.0872 179.046 91.0083 179.046 91.0083C179.046 90.9293 179.046 90.8504 179.046 90.7715C179.046 85.6409 179.046 80.5103 179.046 75.3798C179.046 75.3008 179.046 75.2219 179.046 75.143C179.046 75.064 179.126 75.064 179.206 75.064C179.525 75.2219 179.845 75.3798 180.244 75.5376C181.203 76.0112 182.242 76.4059 183.201 76.8795C184.08 77.2741 184.879 77.6688 185.758 77.9845C186.636 78.3792 187.435 78.7738 188.314 79.1685C189.033 79.4842 189.832 79.7999 190.552 80.1946C191.271 80.5103 192.07 80.8261 192.789 81.2207C193.348 81.4575 193.907 81.7732 194.547 82.01C194.547 81.9311 194.547 82.01 194.626 82.01Z" fill="#131313"/>
<path d="M179.126 106.558C179.126 106.558 179.047 106.558 179.126 106.558C179.047 106.558 179.047 106.558 178.967 106.479C177.369 104.269 175.851 102.138 174.253 99.9275C172.655 97.7174 171.057 95.5073 169.459 93.2972C167.94 91.1661 166.342 89.0349 164.824 86.8248C164.425 86.2723 164.025 85.7198 163.626 85.1672C163.626 85.0883 163.546 85.0883 163.546 85.0094C163.626 85.0094 163.626 85.0883 163.706 85.0883C165.863 86.3512 168.1 87.6141 170.258 88.877C172.734 90.3767 175.291 91.7975 177.768 93.2972C178.168 93.534 178.647 93.7708 179.047 94.0076C179.126 94.0076 179.126 94.0865 179.126 94.1655C179.126 94.2444 179.126 94.3233 179.126 94.4023C179.126 98.3489 179.126 102.217 179.126 106.163C179.126 106.242 179.126 106.4 179.126 106.558Z" fill="#828384"/>
<path d="M163.546 82.0098C163.546 82.0098 163.621 82.0098 163.546 82.0098C163.621 82.0098 163.621 82.0098 163.546 82.0098C163.546 82.0842 163.546 82.0842 163.546 82.0098Z" fill="#808080"/>
<path d="M163.626 82.0887C163.626 82.0098 163.626 82.0098 163.626 82.0887C164.425 81.6941 165.224 81.3784 166.023 80.9837C167.062 80.5101 168.1 80.0365 169.139 79.5629C169.938 79.1683 170.737 78.8525 171.536 78.4579C172.655 77.9054 173.853 77.4318 174.972 76.8792C175.771 76.5635 176.57 76.1689 177.369 75.8531C177.928 75.6163 178.487 75.3795 179.047 75.0638C179.127 75.0638 179.127 74.9849 179.207 74.9849C179.207 74.9849 179.207 74.9849 179.207 75.0638C179.207 75.1427 179.207 75.1427 179.207 75.2217C179.207 80.4312 179.207 85.6407 179.207 90.8502C179.207 90.9291 179.207 91.008 179.207 91.087C179.127 91.1659 179.127 91.087 179.047 91.087C178.807 90.9291 178.567 90.8502 178.408 90.6923C173.534 87.8508 168.66 85.0092 163.786 82.1677C163.706 82.0887 163.626 82.0887 163.626 82.0887Z" fill="#343535"/>
<path d="M194.547 85.0094C194.547 85.0883 194.547 85.0883 194.467 85.1672C189.833 91.6396 185.198 98.0331 180.564 104.506C180.085 105.216 179.605 105.847 179.126 106.558C179.126 106.558 179.126 106.558 179.126 106.479C179.126 106.4 179.126 106.4 179.126 106.321C179.126 102.295 179.126 98.2699 179.126 94.2444C179.126 94.1655 179.126 94.0865 179.126 94.0076C180.165 93.3761 181.203 92.7447 182.242 92.1922C186.317 89.8242 190.392 87.4563 194.467 85.0883C194.467 85.0094 194.547 85.0094 194.547 85.0094Z" fill="#2F3030"/>
<path d="M179.126 75.0638C179.126 74.9848 179.126 74.9059 179.126 74.9059C179.126 68.9071 179.126 62.8293 179.126 56.8305C179.126 56.7516 179.126 56.6727 179.126 56.6727C184.24 65.0394 189.353 73.4062 194.467 81.773C194.547 81.8519 194.627 81.9308 194.627 82.0098C194.307 81.8519 193.987 81.694 193.588 81.5362C193.188 81.3783 192.789 81.1415 192.389 80.9837C192.15 80.9047 191.91 80.7469 191.59 80.6679C191.191 80.5101 190.712 80.2733 190.312 80.1154C190.072 80.0365 189.833 79.8786 189.593 79.7997C189.034 79.5629 188.474 79.3261 187.915 79.0893C187.595 78.9314 187.356 78.8525 187.036 78.6946C186.637 78.5368 186.237 78.3 185.838 78.1421C185.598 78.0632 185.358 77.9053 185.118 77.8264C184.559 77.5896 184 77.3528 183.441 77.116C183.121 76.9581 182.881 76.8792 182.562 76.7213C182.162 76.5635 181.763 76.3267 181.363 76.1688C181.123 76.011 180.804 75.932 180.564 75.7742C180.085 75.5374 179.605 75.3006 179.126 75.0638Z" fill="#2F3030"/>
<path d="M180.043 196.087C197.852 196.087 212.289 181.825 212.289 164.232C212.289 146.639 197.852 132.377 180.043 132.377C162.234 132.377 147.797 146.639 147.797 164.232C147.797 181.825 162.234 196.087 180.043 196.087Z" fill="#F89B2B"/>
<path fill-rule="evenodd" clip-rule="evenodd" d="M170.277 147.953C171.396 148.254 172.515 148.455 173.634 148.757C174.753 149.058 175.872 149.259 176.991 149.56C177.296 149.661 177.398 149.56 177.5 149.259C177.907 147.551 178.313 145.943 178.72 144.235C178.822 143.933 178.924 143.833 179.229 143.933C180.246 144.235 181.162 144.436 182.179 144.636C182.484 144.737 182.484 144.837 182.382 145.038C181.975 146.646 181.569 148.355 181.162 149.962C181.162 150.063 181.162 150.163 181.06 150.364C181.874 150.565 182.789 150.766 183.603 150.967C183.705 150.967 183.806 150.766 183.908 150.666C184.213 149.359 184.519 148.154 184.925 146.847C185.027 146.445 185.129 146.043 185.231 145.641C185.231 145.44 185.332 145.34 185.536 145.44C186.553 145.742 187.57 145.943 188.689 146.244C188.791 146.244 188.791 146.345 188.893 146.345C188.587 147.651 188.282 148.857 187.977 150.063C187.875 150.565 187.774 151.068 187.57 151.57C187.468 151.872 187.57 151.972 187.875 152.073C188.994 152.575 190.113 153.078 191.232 153.58C192.249 154.183 193.165 154.987 193.877 155.992C194.792 157.499 194.894 159.107 194.487 160.715C194.182 161.82 193.775 162.825 192.961 163.629C192.351 164.232 191.537 164.634 190.724 164.935C190.622 164.935 190.52 165.036 190.317 165.036C190.724 165.337 191.13 165.538 191.537 165.84C192.758 166.744 193.572 167.849 193.979 169.256C194.182 170.362 194.08 171.568 193.775 172.673C193.368 174.08 192.86 175.286 191.944 176.391C190.825 177.697 189.401 178.401 187.774 178.602C185.637 178.903 183.603 178.702 181.569 178.401C181.263 178.3 181.06 178.401 180.958 178.702C180.551 180.31 180.144 182.018 179.738 183.626C179.636 184.028 179.636 184.129 179.127 183.928C178.212 183.727 177.195 183.425 176.279 183.224C175.974 183.124 175.974 183.023 176.076 182.822C176.482 181.114 176.889 179.406 177.398 177.798C177.398 177.597 177.5 177.496 177.296 177.396C176.482 177.195 175.669 176.994 174.753 176.793C174.55 177.697 174.245 178.602 174.041 179.506C173.838 180.411 173.533 181.315 173.329 182.219C173.227 182.42 173.227 182.521 172.922 182.42C171.905 182.119 170.888 181.918 169.871 181.717C169.565 181.616 169.565 181.516 169.667 181.315C170.074 179.607 170.481 177.898 170.99 176.291C170.99 176.19 171.091 176.09 171.091 175.889C168.752 175.286 166.412 174.683 163.971 174.08C164.174 173.678 164.276 173.376 164.479 172.974C164.886 172.07 165.293 171.166 165.598 170.362C165.7 170.06 165.802 170.06 166.107 170.06C166.819 170.261 167.633 170.462 168.345 170.563C169.159 170.764 169.769 170.362 169.871 169.658C171.193 164.533 172.515 159.408 173.736 154.183C173.939 153.379 173.431 152.475 172.515 152.173C171.6 151.872 170.684 151.671 169.871 151.47C169.667 151.47 169.565 151.369 169.667 151.168C169.972 150.063 170.277 148.857 170.583 147.752C170.176 148.053 170.176 148.053 170.277 147.953ZM175.465 172.773C175.567 172.773 175.669 172.874 175.669 172.874C177.296 173.276 179.026 173.778 180.755 173.879C181.975 173.979 183.094 173.979 184.213 173.577C186.146 172.974 186.96 170.462 185.841 168.854C185.332 168.05 184.519 167.548 183.705 167.046C181.874 166.041 179.738 165.639 177.703 165.237C177.398 165.136 177.398 165.237 177.296 165.538C177.093 166.543 176.788 167.447 176.584 168.452C176.177 169.859 175.872 171.266 175.465 172.773ZM184.01 162.524C184.213 162.524 184.722 162.423 185.129 162.323C187.062 161.921 188.079 159.71 187.062 158.002C186.553 157.097 185.637 156.494 184.722 156.092C183.298 155.489 181.874 155.188 180.348 154.786C180.043 154.685 179.941 154.786 179.839 155.087C179.331 157.198 178.822 159.207 178.212 161.318C178.11 161.519 178.212 161.619 178.415 161.72C178.822 161.82 179.127 161.921 179.534 162.021C181.06 162.222 182.382 162.524 184.01 162.524Z" fill="white"/>
<path d="M99.592 110.909C116.772 110.909 130.7 96.9351 130.7 79.6978C130.7 62.4606 116.772 48.4871 99.592 48.4871C82.4117 48.4871 68.4844 62.4606 68.4844 79.6978C68.4844 96.9351 82.4117 110.909 99.592 110.909Z" fill="#15BDFF"/>
<path d="M97.1385 96.7347L82.1719 66.1326C82.061 65.9034 82.0751 65.6332 82.2093 65.4169C82.3435 65.2007 82.579 65.0687 82.8329 65.0675H88.0201C88.2981 65.0675 88.5587 65.2236 88.6811 65.4694L99.6116 87.67C100.584 89.6597 103.405 89.6597 104.379 87.67L115.274 65.4869C115.402 65.2394 115.657 65.0844 115.935 65.0851H116.581C116.964 65.0851 117.207 65.4869 117.034 65.8185L101.908 96.7367C100.934 98.7264 98.1145 98.7264 97.1385 96.7367V96.7347Z" fill="white"/>
<path d="M40.7617 47.4522C40.7617 32.6801 53.9177 21.3768 68.5212 23.6019L111.448 30.1424C123.232 31.938 131.939 42.0718 131.939 53.9927V188.681C131.939 200.004 124.064 209.804 113.006 212.241L70.0792 221.701C55.0236 225.019 40.7617 213.557 40.7617 198.141V47.4522Z" fill="#A1B0C0"/>
<path d="M17.1631 34.7213C17.1631 22.8132 25.8516 12.6862 37.6214 10.8761L80.5478 4.27434C95.1617 2.02682 108.341 13.3338 108.341 28.1195V213.639C108.341 227.805 96.1931 238.922 82.0828 237.67L39.1564 233.862C26.7075 232.757 17.1631 222.328 17.1631 209.83V34.7213Z" fill="#CCD7E1"/>
<path d="M0 35.6622C0 23.3361 9.29149 12.9922 21.547 11.6748L63.4007 7.17561C77.6632 5.64241 90.1048 16.8183 90.1048 31.163V213.079C90.1048 227.253 77.944 238.373 63.8266 237.108L21.973 233.359C9.53279 232.244 0 221.819 0 209.329V35.6622Z" fill="#ECF0F4"/>
<ellipse cx="44.1095" cy="120.835" rx="18.2355" ry="26.9058" fill="#CCD7E1"/>
<ellipse cx="37.6729" cy="120.835" rx="12.8721" ry="18.296" fill="white"/>
<path d="M115.849 85.5606C115.849 81.1027 119.462 77.4888 123.92 77.4888H134.084V93.6323H123.92C119.462 93.6323 115.849 90.0185 115.849 85.5606Z" fill="#CCD7E1"/>
<ellipse cx="135.693" cy="85.5606" rx="6.97239" ry="8.07175" fill="#ECF0F4"/>
<path d="M115.849 116.771C115.849 112.314 119.462 108.7 123.92 108.7H134.084V124.843H123.92C119.462 124.843 115.849 121.229 115.849 116.771Z" fill="#CCD7E1"/>
<ellipse cx="135.693" cy="116.772" rx="6.97239" ry="8.07175" fill="#ECF0F4"/>
<path d="M115.849 145.83C115.849 141.372 119.462 137.758 123.92 137.758H134.084V153.901H123.92C119.462 153.901 115.849 150.288 115.849 145.83Z" fill="#CCD7E1"/>
<ellipse cx="135.693" cy="145.83" rx="6.97239" ry="8.07175" fill="#ECF0F4"/>
</svg>
