<svg width="240" height="240" viewBox="0 0 240 240" fill="none" xmlns="http://www.w3.org/2000/svg">
<ellipse cx="112.833" cy="38.8297" rx="38.7174" ry="38.8297" fill="white"/>
<path d="M151.239 38.8297C151.239 60.104 134.043 77.3487 112.833 77.3487C91.6221 77.3487 74.426 60.104 74.426 38.8297C74.426 17.5554 91.6221 0.310744 112.833 0.310744C134.043 0.310744 151.239 17.5554 151.239 38.8297Z" stroke="#DCE5EE" stroke-opacity="0.8" stroke-width="0.621488"/>
<path d="M103.121 34.3493L113.623 23.735L124.129 34.3549L130.24 28.1785L113.623 11.3813L97.0107 28.1729L103.121 34.3493ZM92.6954 32.5336L98.8058 38.7095L92.6954 44.8864L86.585 38.71L92.6954 32.5336ZM103.121 43.0719L113.623 53.6862L124.129 43.0667L130.243 49.2397L130.24 49.2431L113.623 66.0399L97.0103 49.2487L97.0018 49.2401L103.121 43.0719ZM140.661 38.7125L134.551 44.8889L128.44 38.713L134.55 32.5361L140.661 38.7125Z" fill="#F5BC00"/>
<path d="M119.82 38.7075H119.823L113.622 32.44L109.04 37.0717H109.04L108.514 37.604L107.427 38.7019L107.419 38.7105L107.427 38.7196L113.622 44.9814L119.823 38.714L119.826 38.7105L119.82 38.7075Z" fill="#F5BC00"/>
<rect x="58.0244" y="57.3386" width="91.5138" height="20.1713" rx="10.0856" fill="#ECF0F4"/>
<rect x="129.425" y="57.3386" width="34.192" height="20.1713" rx="10.0856" fill="#CCD7E1"/>
<rect y="68.4724" width="212.809" height="170.759" rx="20" fill="#ECF0F4"/>
<g filter="url(#filter0_d)">
<path d="M92.9043 130.752L103.631 140.837L92.9043 150.923" stroke="#CCD7E1" stroke-width="2.49999" stroke-miterlimit="10" stroke-linecap="round" stroke-linejoin="round"/>
<path d="M63.4053 140.837H103.631" stroke="#CCD7E1" stroke-width="2.49999" stroke-miterlimit="10" stroke-linecap="round" stroke-linejoin="round"/>
<path d="M74.1321 148.401L63.4053 158.487L74.1321 168.572" stroke="#CCD7E1" stroke-width="2.49999" stroke-miterlimit="10" stroke-linecap="round" stroke-linejoin="round"/>
<path d="M103.631 158.487H63.4053" stroke="#CCD7E1" stroke-width="2.49999" stroke-miterlimit="10" stroke-linecap="round" stroke-linejoin="round"/>
</g>
<path d="M149.376 88.4724C149.376 77.4267 158.33 68.4724 169.376 68.4724H193.178C204.224 68.4724 213.178 77.4267 213.178 88.4724V219.231C213.178 230.277 204.224 239.231 193.178 239.231H169.376C158.33 239.231 149.376 230.277 149.376 219.231V88.4724Z" fill="#CCD7E1"/>
<g filter="url(#filter1_d)">
<ellipse cx="184.379" cy="90.3996" rx="4.02259" ry="4.03426" fill="#48C464"/>
</g>
<g filter="url(#filter2_d)">
<ellipse cx="184.379" cy="108.554" rx="4.02259" ry="4.03426" fill="#62688F"/>
</g>
<rect x="171.616" y="130.52" width="22.1242" height="90.7707" rx="11.0621" fill="#ECF0F4"/>
<rect x="171.616" y="136.572" width="13.0734" height="79.6765" rx="6.5367" fill="#B3C1D0"/>
<path d="M238.523 240V113.149L177.4 136.516C175.07 137.407 173.157 139.136 172.036 141.365L171.556 142.321V210.829L172.025 211.668C173.158 213.697 174.963 215.268 177.128 216.11L238.523 240Z" fill="url(#paint0_linear)"/>
<ellipse cx="199.775" cy="175.906" rx="40.2259" ry="40.3426" fill="white"/>
<path d="M199.765 145.649C199.765 145.839 199.765 146.029 199.765 146.219C199.765 153.245 199.765 160.366 199.765 167.392C199.765 167.487 199.765 167.677 199.765 167.772C199.765 167.867 199.669 167.962 199.573 167.962C198.9 168.247 198.323 168.532 197.65 168.817C196.784 169.196 195.823 169.576 194.957 170.051C193.9 170.526 192.842 171 191.784 171.475C190.919 171.855 190.054 172.235 189.188 172.615C188.13 173.089 187.073 173.564 186.015 174.039C185.15 174.419 184.284 174.798 183.323 175.273C182.65 175.558 181.88 175.938 181.207 176.223C181.111 176.223 181.111 176.318 181.015 176.223C181.015 176.223 181.015 176.223 180.919 176.223C181.207 175.748 181.496 175.368 181.784 174.893C183.323 172.33 184.957 169.766 186.496 167.202C188.13 164.449 189.861 161.695 191.496 158.942C193.034 156.378 194.573 153.815 196.111 151.346C197.265 149.447 198.419 147.643 199.477 145.744C199.669 145.744 199.669 145.649 199.765 145.649C199.669 145.649 199.765 145.649 199.765 145.649Z" fill="#828384"/>
<path d="M218.419 176.223C216.977 177.172 215.438 178.027 213.996 178.881C209.284 181.635 204.669 184.293 199.957 187.047C199.861 187.047 199.861 187.142 199.765 187.142C199.669 187.142 199.669 187.047 199.669 187.047C199.669 186.952 199.669 186.857 199.669 186.762C199.669 180.59 199.669 174.419 199.669 168.247C199.669 168.152 199.669 168.057 199.669 167.962C199.669 167.867 199.765 167.867 199.861 167.867C200.246 168.057 200.63 168.247 201.111 168.437C202.265 169.007 203.515 169.481 204.669 170.051C205.727 170.526 206.688 171.001 207.746 171.38C208.804 171.855 209.765 172.33 210.823 172.805C211.688 173.184 212.65 173.564 213.515 174.039C214.38 174.419 215.342 174.798 216.207 175.273C216.88 175.558 217.554 175.938 218.323 176.223C218.323 176.128 218.323 176.223 218.419 176.223Z" fill="#131313"/>
<path d="M199.765 205.752C199.765 205.752 199.668 205.752 199.765 205.752C199.668 205.752 199.668 205.752 199.572 205.657C197.649 202.998 195.822 200.435 193.899 197.776C191.976 195.118 190.053 192.459 188.13 189.8C186.303 187.237 184.38 184.673 182.553 182.015C182.072 181.35 181.592 180.685 181.111 180.021C181.111 179.926 181.015 179.926 181.015 179.831C181.111 179.831 181.111 179.926 181.207 179.926C183.803 181.445 186.495 182.964 189.092 184.483C192.072 186.287 195.149 187.996 198.13 189.8C198.611 190.085 199.188 190.37 199.668 190.655C199.765 190.655 199.765 190.75 199.765 190.845C199.765 190.94 199.765 191.035 199.765 191.13C199.765 195.877 199.765 200.53 199.765 205.277C199.765 205.372 199.765 205.562 199.765 205.752Z" fill="#828384"/>
<path d="M181.015 176.223C181.015 176.223 181.112 176.223 181.015 176.223C181.112 176.223 181.112 176.223 181.015 176.223C181.015 176.319 181.015 176.319 181.015 176.223Z" fill="#808080"/>
<path d="M181.111 176.317C181.111 176.223 181.111 176.223 181.111 176.317C182.073 175.843 183.034 175.463 183.996 174.988C185.246 174.419 186.496 173.849 187.746 173.279C188.707 172.804 189.669 172.425 190.631 171.95C191.977 171.285 193.419 170.716 194.765 170.051C195.727 169.671 196.688 169.196 197.65 168.817C198.323 168.532 198.996 168.247 199.669 167.867C199.765 167.867 199.765 167.772 199.861 167.772C199.861 167.772 199.861 167.772 199.861 167.867C199.861 167.962 199.861 167.962 199.861 168.057C199.861 174.324 199.861 180.59 199.861 186.857C199.861 186.952 199.861 187.047 199.861 187.142C199.765 187.237 199.765 187.142 199.669 187.142C199.381 186.952 199.092 186.857 198.9 186.667C193.034 183.249 187.169 179.831 181.304 176.412C181.207 176.317 181.111 176.317 181.111 176.317Z" fill="#343535"/>
<path d="M218.323 179.831C218.323 179.926 218.323 179.926 218.227 180.021C212.65 187.807 207.073 195.497 201.496 203.283C200.919 204.138 200.343 204.897 199.766 205.752C199.766 205.752 199.766 205.752 199.766 205.657C199.766 205.562 199.766 205.562 199.766 205.467C199.766 200.625 199.766 195.782 199.766 190.94C199.766 190.845 199.766 190.75 199.766 190.655C201.016 189.895 202.266 189.136 203.516 188.471C208.419 185.623 213.323 182.774 218.227 179.926C218.227 179.831 218.323 179.831 218.323 179.831Z" fill="#2F3030"/>
<path d="M199.766 167.867C199.766 167.772 199.766 167.677 199.766 167.677C199.766 160.461 199.766 153.15 199.766 145.934C199.766 145.839 199.766 145.744 199.766 145.744C205.919 155.808 212.073 165.873 218.227 175.937C218.323 176.032 218.419 176.127 218.419 176.222C218.035 176.032 217.65 175.843 217.169 175.653C216.689 175.463 216.208 175.178 215.727 174.988C215.439 174.893 215.15 174.703 214.766 174.608C214.285 174.418 213.708 174.133 213.227 173.944C212.939 173.849 212.65 173.659 212.362 173.564C211.689 173.279 211.016 172.994 210.343 172.709C209.958 172.519 209.669 172.424 209.285 172.234C208.804 172.045 208.323 171.76 207.843 171.57C207.554 171.475 207.266 171.285 206.977 171.19C206.304 170.905 205.631 170.62 204.958 170.335C204.573 170.146 204.285 170.051 203.9 169.861C203.419 169.671 202.939 169.386 202.458 169.196C202.169 169.006 201.785 168.911 201.496 168.721C200.919 168.437 200.343 168.152 199.766 167.867Z" fill="#2F3030"/>
<rect x="150.857" y="119.143" width="20.5714" height="102" fill="#CCD7E1"/>
<defs>
<filter id="filter0_d" x="62.1553" y="127.396" width="42.7259" height="42.4262" filterUnits="userSpaceOnUse" color-interpolation-filters="sRGB">
<feFlood flood-opacity="0" result="BackgroundImageFix"/>
<feColorMatrix in="SourceAlpha" type="matrix" values="0 0 0 0 0 0 0 0 0 0 0 0 0 0 0 0 0 0 127 0"/>
<feOffset dy="-2.10525"/>
<feColorMatrix type="matrix" values="0 0 0 0 1 0 0 0 0 1 0 0 0 0 1 0 0 0 1 0"/>
<feBlend mode="normal" in2="BackgroundImageFix" result="effect1_dropShadow"/>
<feBlend mode="normal" in="SourceGraphic" in2="effect1_dropShadow" result="shape"/>
</filter>
<filter id="filter1_d" x="179.356" y="86.3653" width="9.04517" height="8.06851" filterUnits="userSpaceOnUse" color-interpolation-filters="sRGB">
<feFlood flood-opacity="0" result="BackgroundImageFix"/>
<feColorMatrix in="SourceAlpha" type="matrix" values="0 0 0 0 0 0 0 0 0 0 0 0 0 0 0 0 0 0 127 0"/>
<feOffset dx="-1"/>
<feColorMatrix type="matrix" values="0 0 0 0 0.178868 0 0 0 0 0.611354 0 0 0 0 0.276526 0 0 0 1 0"/>
<feBlend mode="normal" in2="BackgroundImageFix" result="effect1_dropShadow"/>
<feBlend mode="normal" in="SourceGraphic" in2="effect1_dropShadow" result="shape"/>
</filter>
<filter id="filter2_d" x="179.356" y="104.519" width="9.04517" height="8.06851" filterUnits="userSpaceOnUse" color-interpolation-filters="sRGB">
<feFlood flood-opacity="0" result="BackgroundImageFix"/>
<feColorMatrix in="SourceAlpha" type="matrix" values="0 0 0 0 0 0 0 0 0 0 0 0 0 0 0 0 0 0 127 0"/>
<feOffset dx="-1"/>
<feColorMatrix type="matrix" values="0 0 0 0 0.270588 0 0 0 0 0.290196 0 0 0 0 0.458824 0 0 0 1 0"/>
<feBlend mode="normal" in2="BackgroundImageFix" result="effect1_dropShadow"/>
<feBlend mode="normal" in="SourceGraphic" in2="effect1_dropShadow" result="shape"/>
</filter>
<linearGradient id="paint0_linear" x1="181.011" y1="165.762" x2="238.541" y2="164.72" gradientUnits="userSpaceOnUse">
<stop stop-color="#8A92B2" stop-opacity="0.5"/>
<stop offset="1" stop-color="#E8EBF5" stop-opacity="0"/>
</linearGradient>
</defs>
</svg>
