<svg width="285" height="280" viewBox="0 0 285 280" fill="none" xmlns="http://www.w3.org/2000/svg">
<path d="M51.0648 140.658C51.0648 140.658 18.2231 150.009 5 127.318" stroke="#3375BB" stroke-width="9.69027" stroke-miterlimit="10" stroke-linecap="round" stroke-linejoin="round"/>
<path d="M277.907 125.73C277.907 125.73 261.969 162.401 229.572 152.676" stroke="#3375BB" stroke-width="9.69027" stroke-miterlimit="10" stroke-linecap="round" stroke-linejoin="round"/>
<path d="M140.207 246.935C103.318 246.935 43.603 197.819 43.603 130.56C43.603 74.0395 60.3184 57.083 74.7277 57.083C89.1369 57.083 88.5611 80.8217 108.158 80.2564C127.755 79.691 123.144 56.5176 144.47 56.5176C166.373 56.5176 162.338 83.0824 174.442 83.0824C195.768 83.0824 195.192 61.3218 214.789 61.3218C239.574 61.3218 239.574 108.517 239.574 127.734C239.575 191.037 193.811 246.935 140.207 246.935Z" fill="#94C4F4"/>
<path opacity="0.5" d="M198.388 272.22C198.388 276.517 168.303 280 136.901 280C105.499 280 85.3306 275.868 85.3306 271.572C85.3306 267.275 115.416 263.143 146.818 263.143C178.221 263.143 198.388 267.924 198.388 272.22Z" fill="#94C4F4"/>
<path d="M203.017 106.247C203.017 111.26 198.872 114.027 193.76 114.027C188.648 114.027 184.504 109.963 184.504 104.95C184.504 99.9372 189.971 95.8734 195.083 95.8734C200.195 95.8734 203.017 101.234 203.017 106.247Z" fill="#3375BB"/>
<path opacity="0.5" d="M254.159 187.839C254.159 190.345 252.087 191.729 249.531 191.729C246.975 191.729 244.903 189.697 244.903 187.191C244.903 184.684 247.636 182.652 250.192 182.652C252.748 182.652 254.159 185.333 254.159 187.839Z" fill="#94C4F4"/>
<path opacity="0.5" d="M278.765 77.0718C274.752 77.0718 270.455 80.2616 270.455 84.2034C270.455 88.1453 273.707 91.3351 277.727 91.3351C281.747 91.3351 285 89.1632 285 85.2213C285 81.2859 282.785 77.0718 278.765 77.0718ZM277.727 88.7417C275.169 88.7417 273.099 86.7125 273.099 84.2034C273.099 81.6944 275.83 79.6651 278.388 79.6651C280.947 79.6651 282.355 82.3427 282.355 84.8518C282.355 87.3608 280.286 88.7417 277.727 88.7417Z" fill="#94C4F4"/>
<path opacity="0.5" d="M115.05 0C111.036 0 106.739 3.1898 106.739 7.13166C106.739 11.0735 109.992 14.2633 114.011 14.2633C118.031 14.2633 121.284 12.0914 121.284 8.14955C121.284 4.21416 119.069 0 115.05 0ZM114.011 11.67C111.453 11.67 109.383 9.64071 109.383 7.13166C109.383 4.62261 112.114 2.59333 114.673 2.59333C117.231 2.59333 118.64 5.27095 118.64 7.78C118.64 10.289 116.57 11.67 114.011 11.67Z" fill="#94C4F4"/>
<path opacity="0.5" d="M279.05 9.73653C279.05 5.6222 275.649 1.21678 271.447 1.21678C267.244 1.21678 263.843 4.55181 263.843 8.67261C263.843 12.7934 266.159 16.1284 270.362 16.1284C274.557 16.1284 279.05 13.858 279.05 9.73653ZM266.608 8.67261C266.608 6.04946 268.772 3.92811 271.447 3.92811C274.122 3.92811 276.285 6.72761 276.285 9.35077C276.285 11.9739 273.43 13.4178 270.755 13.4178C268.081 13.4171 266.608 11.2958 266.608 8.67261Z" fill="#94C4F4"/>
<path opacity="0.5" d="M68.9171 31.2799C68.9171 33.7863 66.845 35.1698 64.289 35.1698C61.733 35.1698 59.6609 33.138 59.6609 30.6315C59.6609 28.1251 62.3941 26.0932 64.9501 26.0932C67.5062 26.0932 68.9171 28.7734 68.9171 31.2799Z" fill="#94C4F4"/>
<path d="M27.9796 15.2225C27.9796 17.729 25.9075 19.1125 23.3515 19.1125C20.7955 19.1125 18.7234 17.0806 18.7234 14.5742C18.7234 12.0677 21.4566 10.0358 24.0126 10.0358C26.5687 10.0358 27.9796 12.7161 27.9796 15.2225Z" fill="#94C4F4"/>
<path opacity="0.5" d="M20.1929 63.1059C20.1929 66.8656 17.3439 68.9409 13.8292 68.9409C10.3145 68.9409 7.46558 65.8931 7.46558 62.1334C7.46558 58.3738 11.2236 55.3259 14.7383 55.3259C18.253 55.3259 20.1929 59.3463 20.1929 63.1059Z" fill="#94C4F4"/>
<path d="M99.2148 103.005C99.2148 108.018 95.0707 110.785 89.9586 110.785C84.8465 110.785 80.7024 106.721 80.7024 101.708C80.7024 96.6955 86.1688 92.6318 91.2809 92.6318C96.393 92.6318 99.2148 97.9922 99.2148 103.005Z" fill="#3375BB"/>
<path d="M113.473 118.762C113.473 118.762 118.02 136.136 140.846 137.036C162.303 137.882 169.626 120.976 169.626 120.976" stroke="#3375BB" stroke-width="12.9204" stroke-miterlimit="10" stroke-linecap="round"/>
<path d="M185.084 14.0501L186.349 33.5144" stroke="#D4E8FB" stroke-width="3.23009" stroke-miterlimit="10" stroke-linecap="round"/>
<path d="M192.644 18.1833L180.276 30.0205" stroke="#D4E8FB" stroke-width="3.23009" stroke-miterlimit="10" stroke-linecap="round"/>
<path d="M195.1 27.0116L176.333 20.5529" stroke="#D4E8FB" stroke-width="3.23009" stroke-miterlimit="10" stroke-linecap="round"/>
</svg>
