<svg width="118" height="120" viewBox="0 0 118 120" fill="none" xmlns="http://www.w3.org/2000/svg">
<path d="M6.71704 44.7795L7.23904 52.9819" stroke="#D4E8FB" stroke-width="1.38806" stroke-miterlimit="10" stroke-linecap="round"/>
<path d="M9.83577 46.5212L4.73413 51.5095" stroke="#D4E8FB" stroke-width="1.38806" stroke-miterlimit="10" stroke-linecap="round"/>
<path d="M10.8488 50.2415L3.10718 47.5198" stroke="#D4E8FB" stroke-width="1.38806" stroke-miterlimit="10" stroke-linecap="round"/>
<path d="M35.9296 82.4263C33.3968 87.0373 14.8169 92.8525 22.9944 68.2766" stroke="#3375BB" stroke-width="4.54032" stroke-miterlimit="10" stroke-linecap="round" stroke-linejoin="round"/>
<path d="M84.6241 82.1282C87.1569 86.7392 105.737 92.5544 97.5593 67.9785" stroke="#3375BB" stroke-width="4.54032" stroke-miterlimit="10" stroke-linecap="round" stroke-linejoin="round"/>
<path d="M56.3318 101.491C39.7408 101.491 16.749 78.9237 16.749 48.0201C16.749 22.0508 24.2669 14.2598 30.7476 14.2598C37.2283 14.2598 36.9693 25.167 45.7831 24.9072C54.5972 24.6474 52.5232 14 62.1149 14C71.9659 14 70.1511 26.2057 75.5952 26.2057C85.1869 26.2057 84.9276 16.2074 93.7417 16.2074C104.889 16.2074 104.889 37.8919 104.889 46.7216C104.889 75.8075 80.4407 101.491 56.3318 101.491Z" fill="#94C4F4"/>
<path d="M78.3796 74.532C80.9124 79.1429 95.3292 96.129 99.6409 79.5962" stroke="#3375BB" stroke-width="4.54032" stroke-miterlimit="10" stroke-linecap="round" stroke-linejoin="round"/>
<path d="M68.8931 62.9517H73.4569C74.4599 62.9517 75.2731 62.1386 75.2731 61.1355V57.0684C75.2731 54.8621 76.46 54.1267 78.2405 54.1267C78.5886 54.1267 78.9368 54.3067 79.072 54.5962C79.1489 54.7611 79.1575 54.9488 79.2114 55.1226C79.5868 56.3333 81.1818 61.4676 82.0784 64.187C82.3924 65.1396 82.6917 66.7064 82.6917 67.7095V75.8438C82.6917 76.8468 81.8785 77.6599 80.8755 77.6599H69.9317C68.0028 77.6599 66.3707 76.1891 66.074 74.277L64.887 67.5112C64.7458 66.3911 65.0079 65.2709 65.6735 64.5315C65.7405 64.457 65.8059 64.3809 65.868 64.3023C66.6137 63.3585 67.7534 62.9517 68.8931 62.9517Z" fill="#3375BB"/>
<path d="M42.1741 74.8298C39.6413 79.4408 25.2245 96.4269 20.9128 79.894" stroke="#3375BB" stroke-width="4.54032" stroke-miterlimit="10" stroke-linecap="round" stroke-linejoin="round"/>
<path d="M51.6611 63.2495H47.0973C46.0942 63.2495 45.2811 62.4364 45.2811 61.4334V57.3662C45.2811 55.16 44.0942 54.4246 42.3137 54.4246C41.9656 54.4246 41.6174 54.6045 41.4822 54.8941C41.4053 55.0589 41.3967 55.2466 41.3428 55.4204C40.9674 56.6312 39.3724 61.7655 38.4758 64.4849C38.1618 65.4375 37.8625 67.0043 37.8625 68.0073V76.1417C37.8625 77.1447 38.6757 77.9578 39.6787 77.9578H50.6225C52.5514 77.9578 54.1835 76.487 54.4802 74.5749L55.6672 67.8091C55.8084 66.6889 55.5463 65.5688 54.8807 64.8293C54.8137 64.7549 54.7483 64.6787 54.6862 64.6001C53.9405 63.6563 52.8008 63.2495 51.6611 63.2495Z" fill="#3375BB"/>
<path d="M85.9621 40.1261C85.9621 42.4294 84.0983 43.7008 81.7991 43.7008C79.4999 43.7008 77.636 41.8336 77.636 39.5303C77.636 37.227 80.0946 35.3599 82.3938 35.3599C84.693 35.3599 85.9621 37.8228 85.9621 40.1261Z" fill="#3375BB"/>
<path d="M45.8186 40.1261C45.8186 42.4294 43.9547 43.7008 41.6555 43.7008C39.3563 43.7008 37.4924 41.8336 37.4924 39.5303C37.4924 37.227 39.951 35.3599 42.2502 35.3599C44.5494 35.3599 45.8186 37.8228 45.8186 40.1261Z" fill="#3375BB"/>
<mask id="mask0" mask-type="alpha" maskUnits="userSpaceOnUse" x="49" y="41" width="26" height="14">
<path d="M62.1735 54.1265C68.9069 54.1265 74.3654 48.6584 74.3654 41.9131H49.9817C49.9817 48.6584 55.4402 54.1265 62.1735 54.1265Z" fill="#052B3E"/>
</mask>
<g mask="url(#mask0)">
<path d="M61.5788 54.4239C68.3122 54.4239 73.7706 48.9558 73.7706 42.2104H49.387C49.387 48.9558 54.8454 54.4239 61.5788 54.4239Z" fill="#3375BB"/>
<path fill-rule="evenodd" clip-rule="evenodd" d="M62.0246 56.9171C61.4137 57.4076 60.6383 57.7011 59.7944 57.7011C57.8237 57.7011 56.2261 56.1007 56.2261 54.1264C56.2261 52.1522 57.8237 50.5518 59.7944 50.5518C60.6383 50.5518 61.4137 50.8452 62.0246 51.3358C62.6355 50.8452 63.411 50.5518 64.2549 50.5518C66.2256 50.5518 67.8232 52.1522 67.8232 54.1264C67.8232 56.1007 66.2256 57.7011 64.2549 57.7011C63.411 57.7011 62.6355 57.4076 62.0246 56.9171Z" fill="#E56C58"/>
</g>
<path opacity="0.5" d="M83.3919 115.79C83.3919 117.764 69.8607 119.364 55.7372 119.364C41.6137 119.364 32.543 117.466 32.543 115.492C32.543 113.518 46.0741 111.619 60.1976 111.619C74.3211 111.619 83.3919 113.815 83.3919 115.79Z" fill="#94C4F4"/>
<path opacity="0.5" d="M4.74348 26.4745C4.74348 27.5307 3.88875 28.1138 2.83438 28.1138C1.78002 28.1138 0.925293 27.2575 0.925293 26.2013C0.925293 25.1451 2.05275 24.2888 3.10711 24.2888C4.16148 24.2888 4.74348 25.4183 4.74348 26.4745Z" fill="#94C4F4"/>
<path opacity="0.5" d="M117.925 58.7133C117.925 59.7695 117.071 60.3525 116.016 60.3525C114.962 60.3525 114.107 59.4963 114.107 58.4401C114.107 57.3838 115.235 56.5276 116.289 56.5276C117.343 56.5276 117.925 57.657 117.925 58.7133Z" fill="#94C4F4"/>
<path opacity="0.5" d="M115.353 21.2834C113.698 21.2834 111.925 22.6276 111.925 24.2888C111.925 25.9499 113.267 27.2941 114.925 27.2941C116.583 27.2941 117.925 26.3788 117.925 24.7177C117.925 23.0593 117.012 21.2834 115.353 21.2834ZM114.925 26.2012C113.87 26.2012 113.016 25.3461 113.016 24.2888C113.016 23.2314 114.143 22.3763 115.198 22.3763C116.253 22.3763 116.834 23.5047 116.834 24.562C116.834 25.6193 115.981 26.2012 114.925 26.2012Z" fill="#94C4F4"/>
<path d="M77.9895 0.344238L78.5115 8.54658" stroke="#D4E8FB" stroke-width="1.38806" stroke-miterlimit="10" stroke-linecap="round"/>
<path d="M81.1082 2.08594L76.0066 7.07422" stroke="#D4E8FB" stroke-width="1.38806" stroke-miterlimit="10" stroke-linecap="round"/>
<path d="M82.1215 5.8062L74.3799 3.08447" stroke="#D4E8FB" stroke-width="1.38806" stroke-miterlimit="10" stroke-linecap="round"/>
</svg>
