<svg width="18" height="18" viewBox="0 0 18 18" fill="none" xmlns="http://www.w3.org/2000/svg">
<path d="M6.1875 5.7375V3.375C6.1875 1.82137 7.44637 0.5625 9 0.5625C10.5536 0.5625 11.8125 1.82137 11.8125 3.375V5.7375" stroke="#AAAAAA" stroke-miterlimit="10" stroke-linecap="round" stroke-linejoin="round"/>
<path d="M9 12.9375C9.93198 12.9375 10.6875 12.182 10.6875 11.25C10.6875 10.318 9.93198 9.5625 9 9.5625C8.06802 9.5625 7.3125 10.318 7.3125 11.25C7.3125 12.182 8.06802 12.9375 9 12.9375Z" stroke="#AAAAAA" stroke-miterlimit="10" stroke-linecap="round" stroke-linejoin="round"/>
<path d="M9 17.4375C12.4173 17.4375 15.1875 14.6673 15.1875 11.25C15.1875 7.83274 12.4173 5.0625 9 5.0625C5.58274 5.0625 2.8125 7.83274 2.8125 11.25C2.8125 14.6673 5.58274 17.4375 9 17.4375Z" stroke="#AAAAAA" stroke-miterlimit="10" stroke-linecap="round" stroke-linejoin="round"/>
</svg>
