<svg width="18" height="18" viewBox="0 0 18 18" fill="none" xmlns="http://www.w3.org/2000/svg">
<path d="M8.25 8.25H0V0H8.25V8.25ZM1.5 6.75H6.75V1.5H1.5V6.75Z" fill="black"/>
<path d="M18 8.25H9.75V0H18V8.25ZM11.25 6.75H16.5V1.5H11.25V6.75Z" fill="black"/>
<path d="M8.25 18H0V9.75H8.25V18ZM1.5 16.5H6.75V11.25H1.5V16.5Z" fill="black"/>
<path d="M18 15H16.5V11.25H15V13.5H10.5V9.75H12V12H13.5V9.75H18V15Z" fill="black"/>
<path d="M18 18H10.5V15H12V16.5H18V18Z" fill="black"/>
<path d="M5.25 3H3V5.25H5.25V3Z" fill="black"/>
<path d="M15 3H12.75V5.25H15V3Z" fill="black"/>
<path d="M5.25 12.75H3V15H5.25V12.75Z" fill="black"/>
</svg>
