<svg width="72" height="19" viewBox="0 0 72 19" fill="none" xmlns="http://www.w3.org/2000/svg">
<path d="M7 1V13" stroke="#3375BB" stroke-width="1.5" stroke-miterlimit="10" stroke-linecap="round" stroke-linejoin="round"/>
<path d="M13 18L1 18" stroke="#3375BB" stroke-width="1.5" stroke-miterlimit="10" stroke-linecap="round" stroke-linejoin="round"/>
<path d="M2 7L7 13L12 7" stroke="#3375BB" stroke-width="1.5" stroke-miterlimit="10" stroke-linecap="round" stroke-linejoin="round"/>
<path d="M7 1V13" stroke="white" stroke-width="1.5" stroke-miterlimit="10" stroke-linecap="round" stroke-linejoin="round"/>
<path d="M13 18L1 18" stroke="white" stroke-width="1.5" stroke-miterlimit="10" stroke-linecap="round" stroke-linejoin="round"/>
<path d="M2 7L7 13L12 7" stroke="white" stroke-width="1.5" stroke-miterlimit="10" stroke-linecap="round" stroke-linejoin="round"/>
<path d="M24.0801 14V4.66895H27.5664C28.0814 4.66895 28.5394 4.74414 28.9404 4.89453C29.3415 5.04492 29.665 5.25228 29.9111 5.5166C30.1572 5.78092 30.3418 6.08171 30.4648 6.41895C30.5924 6.75618 30.6562 7.11849 30.6562 7.50586C30.6562 7.87044 30.6038 8.2054 30.499 8.51074C30.3942 8.81608 30.2552 9.07357 30.082 9.2832C29.9089 9.48828 29.7266 9.65918 29.5352 9.7959C29.3438 9.92806 29.1432 10.0329 28.9336 10.1104L30.8271 14H29.2344L27.5391 10.3633H25.4746V14H24.0801ZM25.4746 9.20801H27.334C27.9401 9.20801 28.4027 9.06673 28.7217 8.78418C29.0407 8.50163 29.2002 8.09603 29.2002 7.56738C29.2002 7.01139 29.0361 6.58529 28.708 6.28906C28.3799 5.99284 27.9355 5.84473 27.375 5.84473H25.4746V9.20801ZM32.0439 10.7393V10.1035C32.0439 9.06445 32.3083 8.23275 32.8369 7.6084C33.3701 6.98405 34.1221 6.67188 35.0928 6.67188C36.0726 6.67188 36.8223 6.98405 37.3418 7.6084C37.8659 8.22819 38.1279 9.05534 38.1279 10.0898V10.7188H33.418V10.9238C33.418 11.5072 33.5661 11.9971 33.8623 12.3936C34.1631 12.7855 34.6006 12.9814 35.1748 12.9814C35.6169 12.9814 35.9587 12.8857 36.2002 12.6943C36.4463 12.4984 36.6012 12.2568 36.665 11.9697H38.0391C38.0026 12.2249 37.9229 12.471 37.7998 12.708C37.6813 12.945 37.5127 13.1729 37.2939 13.3916C37.0798 13.6104 36.7904 13.7881 36.4258 13.9248C36.0612 14.057 35.6465 14.123 35.1816 14.123C34.1699 14.123 33.3929 13.8177 32.8506 13.207C32.3128 12.5964 32.0439 11.7738 32.0439 10.7393ZM33.418 9.70703H36.7676V9.68652C36.7676 9.12598 36.6172 8.67025 36.3164 8.31934C36.0156 7.96387 35.6077 7.78613 35.0928 7.78613C34.5778 7.78613 34.1699 7.96387 33.8691 8.31934C33.5684 8.6748 33.418 9.13053 33.418 9.68652V9.70703ZM39.3994 10.7666V9.99414C39.3994 9.01432 39.6706 8.2168 40.2129 7.60156C40.7552 6.98177 41.5049 6.67188 42.4619 6.67188C43.3232 6.67188 44.0046 6.89974 44.5059 7.35547C45.0117 7.8112 45.2692 8.35579 45.2783 8.98926H43.959C43.9225 8.69303 43.7744 8.42415 43.5146 8.18262C43.2549 7.94108 42.9131 7.82031 42.4893 7.82031C41.9287 7.82031 41.5026 8.02767 41.2109 8.44238C40.9238 8.85254 40.7803 9.38118 40.7803 10.0283V10.7734C40.7803 11.4069 40.9307 11.9242 41.2314 12.3252C41.5368 12.7262 41.9561 12.9268 42.4893 12.9268C42.9313 12.9268 43.2777 12.8311 43.5283 12.6396C43.779 12.4482 43.9385 12.2021 44.0068 11.9014H45.3262C45.3034 12.5212 45.0299 13.0475 44.5059 13.4805C43.9863 13.9089 43.305 14.123 42.4619 14.123C41.4958 14.123 40.7438 13.8177 40.2061 13.207C39.6683 12.5918 39.3994 11.7783 39.3994 10.7666ZM46.5088 10.7393V10.1035C46.5088 9.06445 46.7731 8.23275 47.3018 7.6084C47.835 6.98405 48.5869 6.67188 49.5576 6.67188C50.5374 6.67188 51.2871 6.98405 51.8066 7.6084C52.3307 8.22819 52.5928 9.05534 52.5928 10.0898V10.7188H47.8828V10.9238C47.8828 11.5072 48.0309 11.9971 48.3271 12.3936C48.6279 12.7855 49.0654 12.9814 49.6396 12.9814C50.0817 12.9814 50.4235 12.8857 50.665 12.6943C50.9111 12.4984 51.0661 12.2568 51.1299 11.9697H52.5039C52.4674 12.2249 52.3877 12.471 52.2646 12.708C52.1462 12.945 51.9775 13.1729 51.7588 13.3916C51.5446 13.6104 51.2552 13.7881 50.8906 13.9248C50.526 14.057 50.1113 14.123 49.6465 14.123C48.6348 14.123 47.8577 13.8177 47.3154 13.207C46.7777 12.5964 46.5088 11.7738 46.5088 10.7393ZM47.8828 9.70703H51.2324V9.68652C51.2324 9.12598 51.082 8.67025 50.7812 8.31934C50.4805 7.96387 50.0726 7.78613 49.5576 7.78613C49.0426 7.78613 48.6348 7.96387 48.334 8.31934C48.0332 8.6748 47.8828 9.13053 47.8828 9.68652V9.70703ZM54.4453 5.60547C54.2858 5.45052 54.2061 5.25911 54.2061 5.03125C54.2061 4.80339 54.2858 4.61426 54.4453 4.46387C54.6094 4.31348 54.8122 4.23828 55.0537 4.23828C55.3089 4.23828 55.5163 4.31348 55.6758 4.46387C55.8398 4.6097 55.9219 4.79883 55.9219 5.03125C55.9219 5.26367 55.8398 5.45508 55.6758 5.60547C55.5163 5.75586 55.3089 5.83105 55.0537 5.83105C54.8122 5.83105 54.6094 5.75586 54.4453 5.60547ZM54.377 14V6.79492H55.751V14H54.377ZM57.1387 6.79492H58.6562L60.3447 12.626H60.3994L62.2246 6.79492H63.6875L61.1035 14H59.6406L57.1387 6.79492ZM64.3916 10.7393V10.1035C64.3916 9.06445 64.6559 8.23275 65.1846 7.6084C65.7178 6.98405 66.4697 6.67188 67.4404 6.67188C68.4202 6.67188 69.1699 6.98405 69.6895 7.6084C70.2135 8.22819 70.4756 9.05534 70.4756 10.0898V10.7188H65.7656V10.9238C65.7656 11.5072 65.9137 11.9971 66.21 12.3936C66.5107 12.7855 66.9482 12.9814 67.5225 12.9814C67.9645 12.9814 68.3063 12.8857 68.5479 12.6943C68.7939 12.4984 68.9489 12.2568 69.0127 11.9697H70.3867C70.3503 12.2249 70.2705 12.471 70.1475 12.708C70.029 12.945 69.8604 13.1729 69.6416 13.3916C69.4274 13.6104 69.138 13.7881 68.7734 13.9248C68.4089 14.057 67.9941 14.123 67.5293 14.123C66.5176 14.123 65.7406 13.8177 65.1982 13.207C64.6605 12.5964 64.3916 11.7738 64.3916 10.7393ZM65.7656 9.70703H69.1152V9.68652C69.1152 9.12598 68.9648 8.67025 68.6641 8.31934C68.3633 7.96387 67.9554 7.78613 67.4404 7.78613C66.9255 7.78613 66.5176 7.96387 66.2168 8.31934C65.916 8.6748 65.7656 9.13053 65.7656 9.68652V9.70703Z" fill="white"/>
</svg>
