<svg width="55" height="19" viewBox="0 0 55 19" fill="none" xmlns="http://www.w3.org/2000/svg">
<path d="M7 12.6364V1.00001" stroke="white" stroke-width="1.5" stroke-miterlimit="10" stroke-linecap="round" stroke-linejoin="round"/>
<path d="M13 18L1 18" stroke="white" stroke-width="1.5" stroke-miterlimit="10" stroke-linecap="round" stroke-linejoin="round"/>
<path d="M2 6.81821L7 1.00002L12 6.81821" stroke="white" stroke-width="1.5" stroke-miterlimit="10" stroke-linecap="round" stroke-linejoin="round"/>
<path d="M23.4102 11.4365H24.7979C24.8434 11.8877 25.0553 12.2614 25.4336 12.5576C25.8118 12.8493 26.3268 12.9951 26.9785 12.9951C27.5983 12.9951 28.0882 12.8584 28.4482 12.585C28.8083 12.3115 28.9883 11.9401 28.9883 11.4707C28.9883 11.1061 28.8675 10.8145 28.626 10.5957C28.389 10.377 28.0107 10.2038 27.4912 10.0762L25.9189 9.67969C25.609 9.60221 25.3265 9.49967 25.0713 9.37207C24.8161 9.24447 24.5791 9.08496 24.3604 8.89355C24.1462 8.69759 23.9775 8.45605 23.8545 8.16895C23.736 7.87728 23.6768 7.55143 23.6768 7.19141C23.6768 6.62174 23.8317 6.12728 24.1416 5.70801C24.4561 5.28418 24.8594 4.96973 25.3516 4.76465C25.8483 4.55957 26.3952 4.45703 26.9922 4.45703C27.5801 4.45703 28.1178 4.55729 28.6055 4.75781C29.0931 4.95378 29.4941 5.25911 29.8086 5.67383C30.123 6.08854 30.2848 6.58073 30.2939 7.15039H28.9336C28.8926 6.70833 28.7035 6.34603 28.3662 6.06348C28.0335 5.78092 27.5687 5.63965 26.9717 5.63965C26.4066 5.63965 25.9508 5.76953 25.6045 6.0293C25.2627 6.28451 25.0918 6.6377 25.0918 7.08887C25.0918 7.74512 25.527 8.17806 26.3975 8.3877L27.9561 8.78418C28.2523 8.8571 28.5189 8.94141 28.7559 9.03711C28.9928 9.13281 29.2161 9.25358 29.4258 9.39941C29.64 9.54069 29.8154 9.70247 29.9521 9.88477C30.0934 10.0625 30.2051 10.2767 30.2871 10.5273C30.3691 10.7734 30.4102 11.0492 30.4102 11.3545C30.4102 12.2477 30.0798 12.945 29.4189 13.4463C28.7627 13.943 27.9082 14.1914 26.8555 14.1914C26.3678 14.1914 25.9258 14.1344 25.5293 14.0205C25.1328 13.9111 24.807 13.7653 24.5518 13.583C24.2965 13.4007 24.0824 13.1888 23.9092 12.9473C23.736 12.7012 23.6107 12.4528 23.5332 12.2021C23.4603 11.9515 23.4193 11.6963 23.4102 11.4365ZM31.6611 10.7393V10.1035C31.6611 9.06445 31.9255 8.23275 32.4541 7.6084C32.9873 6.98405 33.7393 6.67188 34.71 6.67188C35.6898 6.67188 36.4395 6.98405 36.959 7.6084C37.4831 8.22819 37.7451 9.05534 37.7451 10.0898V10.7188H33.0352V10.9238C33.0352 11.5072 33.1833 11.9971 33.4795 12.3936C33.7803 12.7855 34.2178 12.9814 34.792 12.9814C35.234 12.9814 35.5758 12.8857 35.8174 12.6943C36.0635 12.4984 36.2184 12.2568 36.2822 11.9697H37.6562C37.6198 12.2249 37.54 12.471 37.417 12.708C37.2985 12.945 37.1299 13.1729 36.9111 13.3916C36.6969 13.6104 36.4076 13.7881 36.043 13.9248C35.6784 14.057 35.2637 14.123 34.7988 14.123C33.7871 14.123 33.0101 13.8177 32.4678 13.207C31.93 12.5964 31.6611 11.7738 31.6611 10.7393ZM33.0352 9.70703H36.3848V9.68652C36.3848 9.12598 36.2344 8.67025 35.9336 8.31934C35.6328 7.96387 35.2249 7.78613 34.71 7.78613C34.195 7.78613 33.7871 7.96387 33.4863 8.31934C33.1855 8.6748 33.0352 9.13053 33.0352 9.68652V9.70703ZM39.3652 14V6.79492H40.7256V7.77246H40.7734C40.9147 7.46712 41.1676 7.20964 41.5322 7C41.8968 6.78581 42.3343 6.67871 42.8447 6.67871C43.5921 6.67871 44.2051 6.90202 44.6836 7.34863C45.1667 7.79525 45.4082 8.4196 45.4082 9.22168V14H44.0205V9.69336C44.0205 8.49479 43.4805 7.89551 42.4004 7.89551C41.8717 7.89551 41.4616 8.05501 41.1699 8.37402C40.8828 8.68848 40.7393 9.14421 40.7393 9.74121V14H39.3652ZM47.0352 10.8281V9.95996C47.0352 8.97103 47.279 8.17806 47.7666 7.58105C48.2542 6.97949 48.9424 6.67871 49.8311 6.67871C50.3688 6.67871 50.8177 6.78581 51.1777 7C51.5423 7.20964 51.7884 7.47852 51.916 7.80664H51.957V4.17676H53.3379V14H52.0049V12.9062H51.957C51.8613 13.2344 51.6221 13.5169 51.2393 13.7539C50.8564 13.9863 50.387 14.1025 49.8311 14.1025C48.9378 14.1025 48.2474 13.8063 47.7598 13.2139C47.2767 12.6214 47.0352 11.8262 47.0352 10.8281ZM48.4365 10.6436C48.4365 11.359 48.5846 11.9242 48.8809 12.3389C49.1771 12.749 49.6169 12.9541 50.2002 12.9541C50.7516 12.9541 51.1823 12.7536 51.4922 12.3525C51.8021 11.9515 51.957 11.3864 51.957 10.6572V10.0967C51.957 9.39941 51.7975 8.85026 51.4785 8.44922C51.1641 8.04362 50.7288 7.84082 50.1729 7.84082C49.5986 7.84082 49.1657 8.04818 48.874 8.46289C48.5824 8.8776 48.4365 9.43587 48.4365 10.1377V10.6436Z" fill="white"/>
</svg>
