<svg width="236" height="237" viewBox="0 0 236 237" fill="none" xmlns="http://www.w3.org/2000/svg">
<path d="M39.676 206.719H30.8938V230.604H24.9865V206.719H16.3225V201.934H39.676V206.719ZM53.3612 214.634C52.5866 214.529 51.904 214.477 51.3133 214.477C49.1604 214.477 47.7492 215.205 47.0797 216.663V230.604H41.3891V209.298H46.7647L46.9222 211.838C48.0643 209.882 49.6461 208.904 51.6677 208.904C52.2978 208.904 52.8886 208.99 53.4399 209.16L53.3612 214.634ZM68.8776 228.438C67.473 230.144 65.5302 230.998 63.0491 230.998C60.7649 230.998 59.019 230.341 57.8113 229.028C56.6167 227.716 56.0063 225.793 55.9801 223.259V209.298H61.6707V223.062C61.6707 225.281 62.6815 226.39 64.7031 226.39C66.6329 226.39 67.9587 225.72 68.6807 224.381V209.298H74.3911V230.604H69.0351L68.8776 228.438ZM90.2226 224.716C90.2226 224.02 89.8747 223.476 89.179 223.082C88.4964 222.675 87.3937 222.314 85.8709 221.999C80.8038 220.936 78.2702 218.783 78.2702 215.54C78.2702 213.65 79.0513 212.075 80.6134 210.814C82.1887 209.541 84.2431 208.904 86.7767 208.904C89.4809 208.904 91.6403 209.541 93.255 210.814C94.8828 212.088 95.6967 213.742 95.6967 215.776H90.006C90.006 214.963 89.7434 214.293 89.2184 213.768C88.6933 213.23 87.8728 212.961 86.757 212.961C85.7987 212.961 85.057 213.177 84.5319 213.61C84.0068 214.044 83.7443 214.595 83.7443 215.265C83.7443 215.895 84.0396 216.407 84.6304 216.8C85.2342 217.181 86.245 217.516 87.6628 217.805C89.0805 218.08 90.2751 218.395 91.2465 218.75C94.2527 219.853 95.7557 221.763 95.7557 224.48C95.7557 226.423 94.9222 227.998 93.255 229.206C91.5878 230.4 89.435 230.998 86.7964 230.998C85.0111 230.998 83.4227 230.683 82.0312 230.052C80.6528 229.409 79.5698 228.536 78.7822 227.434C77.9945 226.318 77.6007 225.117 77.6007 223.83H82.996C83.0485 224.841 83.4227 225.615 84.1184 226.154C84.8141 226.692 85.7462 226.961 86.9145 226.961C88.0041 226.961 88.8245 226.757 89.3759 226.351C89.9404 225.93 90.2226 225.386 90.2226 224.716ZM106.251 204.06V209.298H109.894V213.473H106.251V224.106C106.251 224.893 106.402 225.458 106.704 225.799C107.006 226.14 107.583 226.311 108.437 226.311C109.067 226.311 109.625 226.265 110.11 226.173V230.486C108.995 230.827 107.846 230.998 106.665 230.998C102.674 230.998 100.639 228.983 100.56 224.952V213.473H97.4492V209.298H100.56V204.06H106.251ZM129.841 222.865L130.727 227.315L131.81 223.062L138.032 201.934H140.218L146.361 223.062L147.425 227.355L148.37 222.865L153.549 201.934H156.03L148.685 230.604H146.361L139.863 208.176L139.135 205.34L138.426 208.176L131.77 230.604H129.447L122.122 201.934H124.603L129.841 222.865ZM171.311 230.604C171.075 229.934 170.924 228.943 170.859 227.63C170.032 228.707 168.975 229.54 167.688 230.131C166.415 230.709 165.063 230.998 163.632 230.998C161.584 230.998 159.924 230.427 158.65 229.284C157.39 228.142 156.76 226.698 156.76 224.952C156.76 222.878 157.62 221.237 159.339 220.03C161.072 218.822 163.481 218.218 166.566 218.218H170.839V215.796C170.839 214.273 170.366 213.079 169.421 212.212C168.489 211.333 167.124 210.893 165.325 210.893C163.685 210.893 162.326 211.313 161.249 212.153C160.173 212.994 159.635 214.004 159.635 215.186L157.272 215.166C157.272 213.473 158.059 212.009 159.635 210.775C161.21 209.528 163.146 208.904 165.444 208.904C167.82 208.904 169.69 209.502 171.055 210.696C172.434 211.878 173.143 213.532 173.182 215.658V225.74C173.182 227.801 173.399 229.344 173.832 230.367V230.604H171.311ZM163.908 228.91C165.483 228.91 166.888 228.53 168.122 227.768C169.369 227.007 170.274 225.99 170.839 224.716V220.03H166.625C164.275 220.056 162.437 220.489 161.112 221.329C159.786 222.156 159.123 223.298 159.123 224.756C159.123 225.95 159.563 226.941 160.442 227.729C161.335 228.517 162.49 228.91 163.908 228.91ZM180.509 230.604H178.146V200.358H180.509V230.604ZM187.953 230.604H185.591V200.358H187.953V230.604ZM201.01 230.998C199.199 230.998 197.558 230.551 196.087 229.659C194.63 228.766 193.495 227.525 192.681 225.937C191.867 224.335 191.46 222.544 191.46 220.561V219.715C191.46 217.667 191.854 215.822 192.641 214.182C193.442 212.541 194.551 211.254 195.969 210.322C197.387 209.377 198.923 208.904 200.577 208.904C203.163 208.904 205.211 209.79 206.72 211.563C208.243 213.322 209.005 215.731 209.005 218.789V220.109H193.803V220.561C193.803 222.977 194.492 224.992 195.871 226.607C197.262 228.208 199.008 229.009 201.109 229.009C202.369 229.009 203.478 228.779 204.436 228.32C205.408 227.86 206.287 227.125 207.075 226.114L208.552 227.237C206.819 229.744 204.305 230.998 201.01 230.998ZM200.577 210.913C198.805 210.913 197.308 211.563 196.087 212.862C194.88 214.162 194.145 215.908 193.882 218.1H206.661V217.844C206.596 215.796 206.012 214.129 204.909 212.843C203.806 211.556 202.362 210.913 200.577 210.913ZM215.642 203.844V209.298H220.053V211.228H215.642V225.425C215.642 226.607 215.852 227.486 216.272 228.064C216.705 228.641 217.421 228.93 218.418 228.93C218.812 228.93 219.449 228.864 220.329 228.733L220.427 230.663C219.81 230.886 218.97 230.998 217.907 230.998C216.292 230.998 215.117 230.532 214.382 229.6C213.647 228.654 213.279 227.269 213.279 225.445V211.228H209.361V209.298H213.279V203.844H215.642Z" fill="#3375BB"/>
<path d="M116.402 7C142.435 26.9655 172.288 25.7342 180.817 25.7342C178.952 139.282 164.736 124.154 116.402 155.994C68.068 124.154 53.941 139.282 52.0752 25.7342C60.5159 25.7342 90.3691 26.9655 116.402 7Z" stroke="#3375BB" stroke-width="12.2989" stroke-miterlimit="10" stroke-linecap="round" stroke-linejoin="round"/>
</svg>
